<svg width="52" height="17" viewBox="0 0 52 17" fill="none" xmlns="http://www.w3.org/2000/svg">
<path d="M45.2501 8.19699C45.3359 8.18393 45.4236 8.19007 45.5067 8.21496C45.5899 8.23985 45.6665 8.28288 45.731 8.34094C45.7955 8.399 45.8463 8.47066 45.8798 8.55073C45.9133 8.63081 45.9286 8.71731 45.9246 8.80402C45.9246 9.24917 45.7223 9.53245 45.2501 10.153C43.3481 12.5001 40.0702 15.9804 35.5782 15.9804C34.2292 15.9804 33.1096 14.9283 33.1096 13.1476C33.1096 12.9048 32.9072 12.7834 32.9072 12.3383C32.9255 12.1139 33.0077 11.8994 33.1439 11.7201C33.2801 11.5408 33.4648 11.4043 33.6761 11.3266C35.2139 7.72486 38.0063 5.93075 40.1106 5.93075C40.5442 5.91956 40.9661 6.07128 41.2933 6.35597C41.6204 6.64066 41.829 7.03764 41.8778 7.46856C41.8778 9.57292 38.5054 11.9606 35.8075 12.5676C35.2814 12.689 35.133 12.9723 35.133 13.2421C35.1576 13.5247 35.2815 13.7896 35.4827 13.9896C35.684 14.1896 35.9496 14.3119 36.2324 14.3347C39.6048 14.3347 42.3431 11.2186 43.8 9.43803C44.2856 8.84449 44.8117 8.19699 45.2501 8.19699ZM35.6658 11.1107C37.1564 10.8274 39.8543 8.84449 39.8543 8.15652C39.8543 7.91371 39.7734 7.75184 39.5306 7.75184C38.5796 7.75184 36.4347 9.89667 35.6658 11.1107Z" fill="white"/>
<path d="M46.9173 6.49723C46.7663 7.22024 46.5403 7.92551 46.2428 8.60159C47.9021 6.90191 49.3994 5.60692 50.4516 5.60692C50.6584 5.58846 50.8669 5.6155 51.0622 5.68616C51.2575 5.75682 51.435 5.86937 51.5822 6.01592C51.7294 6.16247 51.8427 6.33946 51.9142 6.53446C51.9857 6.72947 52.0137 6.93776 51.9961 7.14472C51.9961 8.49368 51.6724 9.69424 50.4988 9.69424C50.3917 9.69702 50.2852 9.67799 50.1858 9.6383C50.0863 9.59861 49.996 9.53909 49.9203 9.46338C49.8446 9.38766 49.785 9.29732 49.7454 9.19787C49.7057 9.09841 49.6866 8.99192 49.6894 8.88487C49.7639 8.51577 49.8585 8.15101 49.9727 7.79222C49.9727 7.67082 49.9322 7.58988 49.7299 7.58988C49.2038 7.58988 46.6138 10.0585 45.2783 12.0009C44.8052 12.7381 44.4054 13.5197 44.0845 14.3346C43.7608 15.144 43.41 15.9129 43.1537 15.9129C42.8845 15.9037 42.6281 15.7953 42.4339 15.6085C42.2397 15.4218 42.1214 15.1699 42.1016 14.9012C42.3656 13.6577 42.773 12.4491 43.3156 11.2995C43.868 10.0443 44.3543 8.76102 44.7725 7.45498C45.0962 6.4028 45.3795 5.79577 46.027 5.79577C46.5531 5.76879 46.9173 6.05208 46.9173 6.49723Z" fill="white"/>
<path d="M51.1887 12.953C51.7552 12.953 51.998 13.3172 51.998 13.8837C51.998 14.6931 51.3236 15.9072 50.2174 15.9072C50.0977 15.911 49.9786 15.8889 49.8683 15.8423C49.758 15.7957 49.659 15.7258 49.5783 15.6374C49.4975 15.5489 49.4369 15.4441 49.4005 15.33C49.3641 15.2159 49.3529 15.0953 49.3676 14.9764C49.3795 14.4772 49.5697 13.9988 49.9037 13.6277C50.2377 13.2566 50.6935 13.0173 51.1887 12.953Z" fill="white"/>
<path d="M6.12424 6.98129H4.14802V15.8506H1.27476V6.98129H0V4.65435H1.27476V4.08779C1.22734 3.526 1.30836 2.96078 1.51169 2.43494C1.71502 1.90909 2.03532 1.4364 2.44835 1.05265C3.4811 0.333891 4.73797 0.0106931 5.98934 0.142104V2.52975C5.48463 2.46704 4.97429 2.58923 4.55271 2.87373C4.39389 3.05729 4.27571 3.27239 4.20597 3.50488C4.13622 3.73738 4.11647 3.98201 4.14802 4.22268V4.68807H6.12424V6.98129Z" fill="white"/>
<path d="M7.89611 7.20396C8.30855 6.37054 8.94648 5.66951 9.73743 5.18054C10.5257 4.71813 11.4273 4.48457 12.3409 4.50606C13.1024 4.48865 13.8561 4.66258 14.533 5.01192C15.1255 5.31862 15.6417 5.75421 16.0438 6.28668V4.65445H18.8968V15.8507H16.0438V14.2253C15.6518 14.7757 15.1337 15.2243 14.533 15.5337C13.85 15.8868 13.0894 16.063 12.3207 16.0463C11.4077 16.0555 10.5112 15.8027 9.73743 15.3179C8.95036 14.8243 8.31354 14.1245 7.89611 13.2945C7.43105 12.3467 7.19978 11.3013 7.22164 10.2458C7.19606 9.19215 7.42756 8.14809 7.89611 7.20396ZM15.6391 8.49221C15.3883 8.01951 15.0097 7.62686 14.5464 7.35909C14.0982 7.09756 13.5883 6.9602 13.0693 6.96115C12.5581 6.9571 12.0551 7.08983 11.6125 7.3456C11.1546 7.61504 10.7791 8.00454 10.5266 8.47198C10.2399 9.00863 10.0981 9.61071 10.1151 10.2189C10.1002 10.8354 10.2417 11.4457 10.5266 11.9927C10.7785 12.4716 11.1563 12.8727 11.6192 13.1528C12.0563 13.4183 12.558 13.5583 13.0693 13.5575C13.589 13.5568 14.099 13.417 14.5464 13.1528C15.0097 12.8851 15.3883 12.4924 15.6391 12.0197C15.9075 11.4681 16.0469 10.8627 16.0469 10.2492C16.0469 9.63577 15.9075 9.03035 15.6391 8.47872V8.49221Z" fill="white"/>
<path d="M21.857 2.8468C21.7005 2.6919 21.5764 2.50753 21.4916 2.30436C21.4069 2.10119 21.3633 1.88323 21.3633 1.6631C21.3633 1.44296 21.4069 1.22501 21.4916 1.02184C21.5764 0.818664 21.7005 0.634297 21.857 0.479394C22.198 0.17085 22.6415 0 23.1014 0C23.5612 0 24.0047 0.17085 24.3458 0.479394C24.5038 0.63336 24.6295 0.817423 24.7152 1.02072C24.801 1.22402 24.8452 1.44244 24.8452 1.6631C24.8452 1.88375 24.801 2.10217 24.7152 2.30547C24.6295 2.50878 24.5038 2.69284 24.3458 2.8468C24.0027 3.15118 23.56 3.31926 23.1014 3.31926C22.6427 3.31926 22.2 3.15118 21.857 2.8468ZM24.5009 4.6544V15.8507H21.6681V4.6544H24.5009Z" fill="white"/>
<path d="M31.5508 4.99842C32.1695 4.6559 32.8671 4.48149 33.5742 4.49256V7.467H32.8188C32.0891 7.41142 31.3656 7.6357 30.7954 8.09426C30.5407 8.39378 30.3496 8.74195 30.2336 9.11762C30.1177 9.49329 30.0793 9.88861 30.1209 10.2796V15.8507H27.2881V4.65444H30.1209V6.40807C30.4715 5.82553 30.9633 5.34072 31.5508 4.99842Z" fill="white"/>
</svg>
