<svg width="398" height="460" viewBox="0 0 398 460" fill="none" xmlns="http://www.w3.org/2000/svg">
<g opacity="0.8">
<circle cx="22.1421" cy="225.141" r="14.2795" transform="rotate(-21.0158 22.1421 225.141)" fill="#1CA098"/>
<path d="M22.5606 217.331L22.4881 216.696C22.4865 216.684 22.4811 216.673 22.4728 216.664C22.4644 216.656 22.4534 216.65 22.4411 216.647C22.4289 216.645 22.416 216.646 22.404 216.651C22.3921 216.655 22.3817 216.663 22.3742 216.673L21.8645 217.37C21.7181 217.383 21.5712 217.401 21.4247 217.422L20.7973 216.907C20.7878 216.899 20.776 216.895 20.7632 216.893C20.7505 216.892 20.7376 216.895 20.7261 216.901C20.7146 216.907 20.7052 216.916 20.6991 216.927C20.6929 216.938 20.6903 216.95 20.6917 216.962L20.7586 217.545C20.6144 217.577 20.4705 217.613 20.3262 217.653L20.0121 216.835C20.0093 216.825 20.003 216.816 19.9942 216.81C19.9854 216.804 19.9746 216.801 19.9635 216.802C19.9523 216.802 19.9415 216.806 19.9327 216.813C19.9239 216.82 19.9175 216.829 19.9146 216.839L19.4622 217.936L18.3809 217.429C18.3717 217.424 18.3609 217.421 18.3501 217.423C18.3392 217.424 18.3289 217.428 18.3205 217.435C18.3122 217.442 18.3063 217.451 18.3037 217.462C18.301 217.472 18.3018 217.482 18.3059 217.492L18.6206 218.311C18.4845 218.379 18.3496 218.452 18.2185 218.526L17.8572 218.019C17.8512 218.012 17.8432 218.007 17.8341 218.004C17.825 218.002 17.8152 218.002 17.8058 218.004C17.7963 218.006 17.7877 218.011 17.7808 218.018C17.7739 218.024 17.769 218.033 17.7667 218.042L17.6408 218.881C17.52 218.961 17.406 219.044 17.2877 219.131L16.4046 218.946C16.3945 218.944 16.3839 218.945 16.374 218.949C16.3642 218.953 16.3557 218.959 16.3496 218.967C16.3435 218.976 16.3402 218.986 16.3401 218.995C16.34 219.005 16.343 219.015 16.3489 219.023L16.7417 219.573C15.4808 220.682 14.5822 222.108 14.1621 223.668C13.742 225.227 13.8197 226.847 14.3852 228.319L30.186 222.248C29.6196 220.774 28.5895 219.516 27.2297 218.639C25.8698 217.762 24.243 217.307 22.5606 217.331V217.331Z" fill="white"/>
<path d="M30.4288 222.9C31.9514 226.863 29.6486 231.436 25.2852 233.112C20.9217 234.788 16.1491 232.932 14.6271 228.971L17.5596 226.613L30.4288 222.9Z" fill="#FFDEDB"/>
<path d="M22.0632 228.92C22.3619 228.805 22.4889 228.413 22.3468 228.043C22.2048 227.673 21.8474 227.466 21.5487 227.581C21.25 227.696 21.123 228.089 21.265 228.458C21.4071 228.828 21.7644 229.035 22.0632 228.92Z" fill="#212121"/>
<path d="M24.8698 227.842C25.1685 227.727 25.2955 227.334 25.1535 226.964C25.0114 226.595 24.6541 226.388 24.3553 226.503C24.0566 226.617 23.9296 227.01 24.0717 227.38C24.2137 227.75 24.5711 227.957 24.8698 227.842Z" fill="#212121"/>
<path d="M23.6795 228.992L23.0888 229.426C23.0571 229.449 23.0315 229.48 23.0144 229.514C22.9972 229.548 22.9891 229.585 22.9907 229.623C22.9923 229.66 23.0036 229.695 23.0235 229.726C23.0434 229.758 23.0714 229.783 23.1049 229.801C23.2783 229.896 23.4805 229.939 23.6852 229.923C23.89 229.907 24.088 229.833 24.2536 229.711C24.4192 229.59 24.5448 229.425 24.6141 229.239C24.6835 229.054 24.6934 228.855 24.6425 228.67C24.6333 228.634 24.6149 228.601 24.5888 228.575C24.5627 228.548 24.5297 228.529 24.4929 228.518C24.4561 228.506 24.4165 228.504 24.3776 228.511C24.3388 228.518 24.3018 228.534 24.2701 228.557L23.6795 228.992Z" fill="#FF8E83"/>
<path d="M14.9764 229.746C14.9764 229.746 17.8888 227.999 17.5557 226.613C17.5557 226.613 24.697 225.888 30.7208 223.877C30.7208 223.877 30.2169 221.992 29.7885 221.45C26.7813 222.783 17.4358 226.334 14.3097 228.01C14.4691 228.611 14.6924 229.193 14.9764 229.746Z" fill="white"/>
<path d="M30.0218 222.04L14.7666 229.224C14.7407 229.236 14.7112 229.238 14.6846 229.23C14.658 229.221 14.6364 229.203 14.6247 229.179L13.8061 227.33C13.7827 227.283 13.7697 227.232 13.7677 227.179C13.7656 227.126 13.7747 227.073 13.7943 227.022C13.814 226.972 13.8438 226.925 13.882 226.885C13.9203 226.845 13.9662 226.812 14.0172 226.788L28.7416 219.849C28.798 219.822 28.862 219.818 28.9196 219.836C28.9772 219.854 29.0239 219.893 29.0494 219.945L30.0741 221.9C30.0804 221.912 30.084 221.925 30.0847 221.939C30.0854 221.952 30.0833 221.966 30.0784 221.979C30.0736 221.992 30.0661 222.004 30.0563 222.015C30.0466 222.025 30.0349 222.034 30.0218 222.04V222.04Z" fill="#414141"/>
<path d="M18.9932 228.563L22.795 227.102C22.957 227.524 22.9323 227.998 22.7263 228.419C22.5202 228.841 22.1496 229.176 21.6961 229.35L21.3142 229.497C20.8607 229.671 20.3614 229.67 19.9261 229.495C19.4908 229.32 19.1552 228.985 18.9932 228.563V228.563V228.563Z" fill="#1E1E1E"/>
<path d="M23.123 226.977L26.9249 225.516C27.0869 225.938 27.0622 226.412 26.8561 226.833C26.6501 227.255 26.2795 227.59 25.826 227.764L25.4441 227.91C25.2195 227.997 24.9814 228.041 24.7432 228.041C24.505 228.041 24.2715 227.996 24.056 227.909C23.8405 227.822 23.6471 227.695 23.4871 227.535C23.327 227.375 23.2033 227.186 23.123 226.977V226.977V226.977Z" fill="#1E1E1E"/>
<path d="M23.5359 227.098L22.3564 227.551L22.4287 227.739L23.6081 227.286L23.5359 227.098Z" fill="#1E1E1E"/>
</g>
<g opacity="0.8">
<circle cx="261.194" cy="104.192" r="25.5243" transform="rotate(-23.1058 261.194 104.192)" fill="#7DA9FF"/>
<path d="M275.772 99.4003C278.807 106.513 274.967 114.966 267.197 118.281C259.426 121.596 250.666 118.516 247.632 111.406L252.768 106.941L275.772 99.4003Z" fill="#FFE4E1"/>
<path d="M261.07 110.862C261.602 110.635 261.804 109.913 261.521 109.25C261.238 108.587 260.577 108.233 260.045 108.46C259.513 108.687 259.311 109.409 259.595 110.072C259.878 110.735 260.538 111.089 261.07 110.862Z" fill="#212121"/>
<path d="M266.066 108.73C266.598 108.503 266.8 107.781 266.517 107.118C266.234 106.454 265.573 106.1 265.041 106.327C264.509 106.554 264.308 107.276 264.591 107.94C264.874 108.603 265.534 108.957 266.066 108.73Z" fill="#212121"/>
<path d="M264.02 110.846L262.789 111.371C262.723 111.399 262.664 111.441 262.619 111.495C262.573 111.549 262.541 111.612 262.526 111.679C262.512 111.746 262.514 111.814 262.534 111.878C262.553 111.943 262.589 112 262.639 112.047C262.893 112.292 263.223 112.455 263.585 112.514C263.946 112.574 264.323 112.527 264.667 112.38C265.011 112.234 265.306 111.994 265.513 111.692C265.72 111.389 265.831 111.039 265.83 110.685C265.831 110.617 265.814 110.552 265.781 110.493C265.749 110.435 265.701 110.385 265.643 110.35C265.585 110.314 265.517 110.293 265.447 110.289C265.377 110.285 265.306 110.297 265.24 110.325L264.02 110.846Z" fill="#FF8E83"/>
<path d="M248.319 112.795C248.319 112.795 253.461 109.44 252.762 106.943C252.762 106.943 265.622 105.186 276.371 101.16C276.371 101.16 275.327 97.7635 274.513 96.8068C269.171 99.4136 252.525 106.444 246.991 109.681C247.323 110.763 247.768 111.806 248.319 112.795V112.795Z" fill="#756B67"/>
<path d="M247.163 110.234C245.672 106.737 245.723 102.751 247.306 99.1526C248.89 95.5543 251.875 92.6384 255.607 91.0465C259.338 89.4546 263.509 89.3169 267.202 90.6639C270.895 92.0109 273.808 94.7321 275.3 98.2289" fill="#756B67"/>
<path d="M246.741 107.382L273.811 95.8317C273.863 95.8098 273.917 95.7976 273.973 95.7958C274.028 95.794 274.083 95.8026 274.133 95.8211C274.184 95.8396 274.23 95.8677 274.269 95.9038C274.307 95.9398 274.338 95.9832 274.358 96.0313L275.933 99.723C275.952 99.7677 275.952 99.8187 275.932 99.8648C275.911 99.9108 275.873 99.9481 275.825 99.9685L248.015 111.834C247.967 111.854 247.914 111.856 247.866 111.839C247.819 111.822 247.782 111.787 247.763 111.742L246.315 108.349C246.24 108.173 246.242 107.972 246.322 107.79C246.402 107.609 246.552 107.462 246.741 107.382V107.382Z" fill="#90ADFC"/>
<path d="M250.734 94.2501L249.166 93.056L252.176 92.9751L252.071 91.4329L253.066 92.3961L250.734 94.2501Z" fill="#756B67"/>
</g>
<g opacity="0.8">
<circle cx="365.099" cy="198.1" r="20.3589" transform="rotate(23.2941 365.099 198.1)" fill="#2E99FC"/>
<path d="M352.953 203.643C353.411 203.099 353.477 202.4 353.099 202.081C352.722 201.763 352.044 201.945 351.585 202.489C351.126 203.034 351.06 203.733 351.438 204.051C351.816 204.37 352.494 204.187 352.953 203.643Z" fill="#43437D"/>
<path d="M350.948 205.357C351.406 204.813 351.472 204.113 351.095 203.795C350.717 203.476 350.039 203.659 349.58 204.203C349.121 204.747 349.055 205.446 349.433 205.765C349.811 206.084 350.489 205.901 350.948 205.357Z" fill="#43437D"/>
<path d="M368.608 190.294C370.053 190.916 371.727 190.249 372.349 188.805C372.971 187.361 372.304 185.686 370.86 185.064C369.416 184.443 367.741 185.109 367.119 186.554C366.497 187.998 367.164 189.673 368.608 190.294Z" fill="#43437D"/>
<path d="M368.323 190.622C369.7 191.215 371.176 190.858 371.621 189.825C372.066 188.793 371.31 187.475 369.933 186.882C368.556 186.289 367.079 186.646 366.634 187.678C366.19 188.711 366.946 190.029 368.323 190.622Z" fill="#A82A2A"/>
<path d="M375.618 204.519C373.016 210.563 365.888 213.303 359.699 210.638C353.509 207.973 350.602 200.91 353.203 194.868L358.652 195.276L375.618 204.519Z" fill="#FFDEDB"/>
<path d="M362.406 204.313L361.426 203.891C361.373 203.868 361.316 203.859 361.259 203.864C361.202 203.869 361.147 203.887 361.099 203.918C361.051 203.949 361.012 203.992 360.984 204.042C360.956 204.092 360.941 204.148 360.94 204.205C360.932 204.503 361.013 204.796 361.174 205.048C361.334 205.299 361.566 205.496 361.84 205.614C362.114 205.732 362.417 205.765 362.71 205.709C363.002 205.653 363.272 205.51 363.482 205.299C363.523 205.259 363.554 205.21 363.571 205.156C363.589 205.101 363.593 205.044 363.582 204.987C363.572 204.931 363.548 204.878 363.512 204.834C363.477 204.789 363.431 204.754 363.378 204.731L362.406 204.313Z" fill="#FF8E83"/>
<path d="M352.742 196.103C352.742 196.103 357.037 197.952 364.209 198.454C364.209 198.454 369.148 202.428 374.887 205.921C374.887 205.921 376.349 203.277 376.48 202.221C372.029 200.583 358.813 194.832 353.881 193.457C353.414 194.299 353.033 195.186 352.742 196.103Z" fill="#43437D"/>
<path d="M353.65 193.893C354.929 190.921 357.337 188.579 360.344 187.382C363.35 186.185 366.709 186.232 369.681 187.511C372.653 188.791 374.995 191.199 376.192 194.205C377.388 197.212 377.342 200.57 376.062 203.542" fill="#43437D"/>
<path d="M357.34 198.382C356.642 199.266 357.829 201.367 359.005 202.296C360.182 203.225 361.702 203.261 362.4 202.377C363.098 201.493 362.71 200.023 361.534 199.094C360.357 198.165 358.038 197.498 357.34 198.382Z" fill="#212121"/>
<path d="M370.233 203.933C370.396 202.818 368.318 201.592 366.834 201.376C365.351 201.16 364.016 201.888 363.854 203.003C363.691 204.118 364.762 205.197 366.246 205.413C367.729 205.629 370.071 205.048 370.233 203.933Z" fill="#212121"/>
<line x1="362.269" y1="201.239" x2="364.762" y2="202.313" stroke="#212121" stroke-width="1.4948"/>
</g>
<g opacity="0.8">
<circle cx="47.1168" cy="306.117" r="18.404" transform="rotate(-40.0769 47.1168 306.117)" fill="#FFC692"/>
<g clip-path="url(#clip0_8593_195684)">
<path d="M36.9615 311.134C36.9615 311.134 40.6253 315.945 42.9902 317.275C45.3551 318.604 46.1466 321.531 46.1466 321.531C46.1466 321.531 51.0422 316.86 51.6388 316.929" fill="#AF6B67"/>
<path d="M53.8037 296.964C53.8037 296.964 57.9176 301.397 58.823 303.954C59.7283 306.512 62.4814 307.788 62.4814 307.788C62.4814 307.788 57.0416 311.813 57.0077 312.412" fill="#AF6B67"/>
<path d="M54.7417 298.34C58.5225 302.834 57.8565 309.614 53.2555 313.485C48.6545 317.356 41.8582 316.85 38.0797 312.36L39.5029 307.001L50.6506 297.597L54.7417 298.34Z" fill="#FFDEDB"/>
<path d="M47.2674 309.369C47.5824 309.104 47.5518 308.549 47.1992 308.13C46.8465 307.711 46.3053 307.586 45.9903 307.851C45.6753 308.116 45.7058 308.671 46.0585 309.09C46.4112 309.509 46.9524 309.634 47.2674 309.369Z" fill="#212121"/>
<path d="M50.2195 306.883C50.5345 306.618 50.504 306.064 50.1513 305.645C49.7987 305.225 49.2574 305.101 48.9424 305.366C48.6274 305.631 48.658 306.185 49.0106 306.604C49.3633 307.024 49.9045 307.148 50.2195 306.883Z" fill="#212121"/>
<path d="M49.3022 308.789L48.5733 309.403C48.5346 309.436 48.5046 309.478 48.4858 309.525C48.4671 309.572 48.4603 309.623 48.4659 309.674C48.4716 309.724 48.4896 309.773 48.5183 309.815C48.547 309.857 48.5856 309.891 48.6307 309.915C48.865 310.04 49.1318 310.093 49.3964 310.066C49.661 310.038 49.9113 309.932 50.1148 309.761C50.3184 309.589 50.4658 309.361 50.5381 309.105C50.6104 308.849 50.6042 308.577 50.5203 308.325C50.5047 308.276 50.4775 308.232 50.4411 308.197C50.4046 308.161 50.36 308.135 50.3112 308.121C50.2624 308.107 50.2108 308.105 50.161 308.115C50.1112 308.126 50.0647 308.148 50.0256 308.181L49.3022 308.789Z" fill="#FF8E83"/>
<path d="M54.2654 297.496C50.3942 292.895 43.4065 292.404 38.8064 296.274C34.2063 300.145 33.519 307.073 37.3903 311.674L38.326 312.653L41.267 310.179L40.1439 307.274L42.9825 308.735L46.4447 305.822L45.304 302.759L48.1384 304.397L51.7254 301.379L50.4942 298.277L53.5084 299.879L54.9898 298.632L54.2654 297.496Z" fill="#AF6B67"/>
</g>
</g>
<ellipse opacity="0.8" cx="332.502" cy="162.685" rx="1.61693" ry="4.31181" transform="rotate(57.3532 332.502 162.685)" fill="#FFD2DD"/>
<ellipse opacity="0.8" cx="353.675" cy="303.675" rx="1.61693" ry="4.31181" transform="rotate(100.986 353.675 303.675)" fill="#00ECFF"/>
<ellipse opacity="0.8" cx="113.025" cy="300.862" rx="1.86127" ry="2.40015" transform="rotate(57.3532 113.025 300.862)" fill="#F2F2F2"/>
<ellipse opacity="0.8" cx="108.016" cy="279.761" rx="3.08336" ry="3.97606" transform="rotate(123.343 108.016 279.761)" fill="#00ECFF"/>
<ellipse opacity="0.8" cx="49.0285" cy="170.874" rx="1.86127" ry="2.40015" transform="rotate(123.343 49.0285 170.874)" fill="#FAFF00"/>
<ellipse opacity="0.8" cx="330.866" cy="147.338" rx="1.61693" ry="3.26127" transform="rotate(-2.85054 330.866 147.338)" fill="#F1F5FC"/>
<g opacity="0.8" clip-path="url(#clip1_8593_195684)">
<path d="M334.956 369.821L332.712 368.494C332.17 368.173 331.47 368.352 331.148 368.892L327.322 375.324C327.001 375.864 327.18 376.563 327.722 376.883L329.966 378.21C330.508 378.53 331.208 378.352 331.53 377.811L335.356 371.38C335.677 370.839 335.498 370.141 334.956 369.821Z" fill="#C4C4C4"/>
<path d="M317.55 419.994C330.556 419.994 341.1 409.482 341.1 396.516C341.1 383.549 330.556 373.038 317.55 373.038C304.544 373.038 294 383.549 294 396.516C294 409.482 304.544 419.994 317.55 419.994Z" fill="#101010"/>
<path d="M317.551 415.239C327.923 415.239 336.332 406.857 336.332 396.516C336.332 386.175 327.923 377.792 317.551 377.792C307.178 377.792 298.77 386.175 298.77 396.516C298.77 406.857 307.178 415.239 317.551 415.239Z" fill="#424142"/>
<path d="M349.06 343.551C347.182 342.443 344.757 343.061 343.647 344.927L330.328 367.316C329.671 368.418 330.039 369.831 331.138 370.486L333.943 372.144C335.048 372.799 336.466 372.432 337.122 371.336L350.441 348.947C351.552 347.075 350.932 344.658 349.06 343.551ZM347.047 348.232C346.157 348.232 345.433 347.51 345.433 346.622C345.433 345.735 346.157 345.013 347.047 345.013C347.937 345.013 348.661 345.735 348.661 346.622C348.661 347.51 347.937 348.232 347.047 348.232Z" fill="#8EC431"/>
<path d="M325.431 397.115C325.192 396.614 325.088 396.063 325.124 395.512C325.131 395.365 325.137 395.212 325.137 395.06C325.137 390.03 320.926 385.973 315.832 386.212C311.253 386.42 307.503 390.219 307.368 394.79C307.252 398.712 309.694 402.084 313.156 403.369C313.985 403.675 314.74 404.152 315.409 404.733C316.747 405.884 318.557 406.502 320.515 406.233C323.357 405.847 325.64 403.54 326.002 400.707C326.168 399.416 325.941 398.186 325.431 397.122V397.115Z" fill="white"/>
<path d="M316.193 399.061C318.532 399.061 320.428 397.171 320.428 394.839C320.428 392.507 318.532 390.617 316.193 390.617C313.854 390.617 311.958 392.507 311.958 394.839C311.958 397.171 313.854 399.061 316.193 399.061Z" fill="#F5D538"/>
</g>
<g opacity="0.8" clip-path="url(#clip2_8593_195684)">
<path d="M63.7561 86.5961L82.1758 93.2138C97.0482 98.5571 104.788 114.976 99.441 129.858L98.7735 131.716C97.9721 133.946 95.5123 135.106 93.2826 134.305L51.9552 119.457C49.7255 118.656 48.5663 116.196 49.3677 113.966L58.27 89.1872C59.0713 86.9568 61.5312 85.7967 63.7608 86.5978L63.7561 86.5961Z" fill="#E1EDFF"/>
<path d="M93.9981 126.463L54.5279 112.282C52.2982 111.481 51.1391 109.021 51.9404 106.79L49.3614 113.969C48.56 116.199 49.7192 118.66 51.9488 119.461L93.2763 134.309C95.506 135.11 97.9658 133.95 98.7671 131.719L99.4346 129.861C100.037 128.185 100.463 126.488 100.745 124.788C99.0917 126.6 96.4474 127.343 93.9933 126.461L93.9981 126.463Z" fill="white"/>
<path d="M51.6344 120.847C60.8845 124.17 71.0782 119.363 74.4027 110.11C77.7272 100.856 72.9235 90.661 63.6735 87.3376C54.4234 84.0143 44.2298 88.8216 40.9053 98.0749C37.5808 107.328 42.3844 117.524 51.6344 120.847Z" fill="#444444"/>
<path d="M52.688 117.914C60.3191 120.656 68.7286 116.69 71.4712 109.056C74.2138 101.422 70.251 93.0114 62.6199 90.2697C54.9889 87.5281 46.5794 91.4939 43.8368 99.1276C41.0942 106.761 45.057 115.172 52.688 117.914Z" fill="#AEC3E2"/>
<path d="M94.366 101.675C94.366 101.675 104.335 88.4808 100.178 82.6463C96.0214 76.8117 73.9587 69.6508 77.724 56.3195C81.4894 42.9882 91.9049 40.9009 90.6891 32.4614C89.4733 24.022 79.2398 15.6699 76.2933 20.9153C73.3468 26.1606 71.1842 30.4096 71.1842 30.4096L66.9103 27.5259C66.9103 27.5259 69.8954 21.588 72.2792 17.6989C74.6629 13.8099 79.1561 11.9567 87.459 17.4149C95.7619 22.8732 98.7287 33.9262 91.7552 43.8831C84.7818 53.8401 79.4016 61.328 91.1221 69.2922C102.843 77.2563 109.888 80.7095 103.411 95.3749C96.9347 110.04 98.1722 107.481 98.1722 107.481L94.3677 101.671L94.366 101.675Z" fill="#444444"/>
<path d="M62.0175 45.024L58.628 43.0516C58.1533 42.7754 57.5446 42.9364 57.2684 43.4112L26.9592 95.5117C26.6829 95.9866 26.8438 96.5954 27.3184 96.8716L30.708 98.844C31.1826 99.1202 31.7913 98.9592 32.0676 98.4844L62.3768 46.3839C62.653 45.909 62.4922 45.3002 62.0175 45.024Z" fill="white"/>
<path d="M66.8941 30.1215L65.1007 29.0779C63.5387 28.1689 61.5355 28.6988 60.6265 30.2615L55.9718 38.2628C55.0627 39.8254 55.592 41.829 57.154 42.738L58.9474 43.7816C60.5094 44.6905 62.5126 44.1606 63.4217 42.598L68.0764 34.5967C68.9855 33.0341 68.4561 31.0304 66.8941 30.1215Z" fill="#0C6DFF"/>
<path d="M72.499 30.4064L66.1541 26.7141C65.8489 26.5366 65.4576 26.6401 65.28 26.9454L55.8328 43.1848C55.6552 43.4901 55.7586 43.8815 56.0637 44.059L62.4087 47.7512C62.7138 47.9288 63.1051 47.8253 63.2827 47.52L72.73 31.2806C72.9075 30.9753 72.8041 30.5839 72.499 30.4064Z" fill="#D0E3FF"/>
<path d="M30.645 99.986L25.0822 97.5992C11.7114 93.313 6.73925 97.4747 6.73925 97.4747C6.32335 97.7621 5.99285 98.1718 5.80925 98.6829C5.34079 99.9867 6.01672 101.421 7.32014 101.89L27.0099 108.964C28.3133 109.432 29.7477 108.756 30.2161 107.452C30.6015 106.754 30.6403 99.9843 30.6403 99.9843L30.645 99.986Z" fill="#E1EDFF"/>
<path d="M33.0318 97.1549L27.6384 94.0164C27.4471 93.9051 27.2017 93.97 27.0904 94.1614L25.0871 97.6049C24.9758 97.7963 25.0406 98.0417 25.2319 98.153L30.6254 101.292C30.8167 101.403 31.062 101.338 31.1734 101.147L33.1766 97.703C33.288 97.5116 33.2231 97.2662 33.0318 97.1549Z" fill="#74ABFD"/>
<path d="M21.9617 108.687C24.3665 109.551 27.0166 108.301 27.8809 105.895C28.7452 103.49 27.4964 100.839 25.0916 99.9752C22.6868 99.1112 20.0367 100.361 19.1724 102.767C18.3081 105.172 19.5569 107.823 21.9617 108.687Z" fill="#444444"/>
<path d="M22.2371 107.923C24.22 108.635 26.4052 107.605 27.1179 105.621C27.8306 103.638 26.8008 101.452 24.8179 100.74C22.835 100.027 20.6498 101.058 19.9372 103.041C19.2245 105.025 20.2542 107.21 22.2371 107.923Z" fill="#AEC3E2"/>
</g>
<g opacity="0.8">
<rect x="52" y="396.747" width="66.7487" height="66.7487" rx="6" transform="rotate(-20.8408 52 396.747)" fill="white"/>
<rect x="70.3955" y="395.696" width="23.1864" height="27.1166" rx="1" transform="rotate(-20.8408 70.3955 395.696)" fill="#F8F8F8"/>
<rect x="73.3643" y="403.494" width="23.1864" height="18.7731" rx="1" transform="rotate(-20.8408 73.3643 403.494)" fill="#C9DFFA"/>
<rect x="77.7041" y="395.146" width="9.13403" height="4.86709" rx="1" transform="rotate(-20.8408 77.7041 395.146)" fill="#D8DADF"/>
<rect x="126.35" y="412.339" width="20.1637" height="10.5393" rx="1" transform="rotate(69.1592 126.35 412.339)" fill="#F8F8F8"/>
<rect x="115.69" y="423.836" width="6.25769" height="2.10785" rx="1" transform="rotate(69.1592 115.69 423.836)" fill="white"/>
<rect x="118.317" y="422.836" width="6.25769" height="2.81047" rx="1" transform="rotate(69.1592 118.317 422.836)" fill="#F8F8F8"/>
<rect x="126.358" y="418.287" width="9.03888" height="1.40524" rx="0.702619" transform="rotate(69.1592 126.358 418.287)" fill="#98999D"/>
<rect x="123.732" y="419.287" width="9.03888" height="3.51309" rx="1" transform="rotate(69.1592 123.732 419.287)" fill="#E6EAEE"/>
<rect x="67.1123" y="396.946" width="20.1637" height="7.02617" rx="1" transform="rotate(69.1592 67.1123 396.946)" fill="#EBE5DB"/>
<ellipse cx="69.5187" cy="413.142" rx="2.10785" ry="2.0859" transform="rotate(-20.8408 69.5187 413.142)" fill="#C2D6BC"/>
<ellipse cx="67.5392" cy="407.943" rx="2.10785" ry="2.0859" transform="rotate(-20.8408 67.5392 407.943)" fill="#C2D6BC"/>
<rect x="67.1123" y="396.946" width="20.1637" height="7.02617" rx="1" transform="rotate(69.1592 67.1123 396.946)" fill="#EEE1C9"/>
<ellipse cx="69.5187" cy="413.142" rx="2.10785" ry="2.0859" transform="rotate(-20.8408 69.5187 413.142)" fill="#ACDF9C"/>
<ellipse cx="67.5392" cy="407.943" rx="2.10785" ry="2.0859" transform="rotate(-20.8408 67.5392 407.943)" fill="#ACDF9C"/>
<rect x="113.734" y="379.198" width="27.1166" height="9.83664" rx="1" transform="rotate(69.1592 113.734 379.198)" fill="#EEE1C9"/>
<rect x="85.5117" y="453.18" width="21.7811" height="2.0859" transform="rotate(-20.8408 85.5117 453.18)" fill="#EBE5DB"/>
</g>
<defs>
<clipPath id="clip0_8593_195684">
<rect width="22.0848" height="24.0685" fill="white" transform="translate(30.373 303.369) rotate(-40.0769)"/>
</clipPath>
<clipPath id="clip1_8593_195684">
<rect width="57" height="77" fill="white" transform="translate(294 343)"/>
</clipPath>
<clipPath id="clip2_8593_195684">
<rect width="98.6538" height="110.224" fill="white" transform="translate(41.2686) rotate(19.7621)"/>
</clipPath>
</defs>
</svg>
