<svg width="139" height="212" viewBox="0 0 139 212" fill="none" xmlns="http://www.w3.org/2000/svg">
<g clip-path="url(#clip0_8541_195515)">
<path d="M76.7165 132.917H8.27536C7.28083 132.917 6.47461 133.724 6.47461 134.718V209.721C6.47461 210.716 7.28083 211.522 8.27536 211.522H76.7165C77.7111 211.522 78.5173 210.716 78.5173 209.721V134.718C78.5173 133.724 77.7111 132.917 76.7165 132.917Z" fill="#DFCFB7"/>
<path d="M73.8118 174.715H11.1816C10.1871 174.715 9.38086 175.521 9.38086 176.516V206.624C9.38086 207.619 10.1871 208.425 11.1816 208.425H73.8118C74.8063 208.425 75.6125 207.619 75.6125 206.624V176.516C75.6125 175.521 74.8063 174.715 73.8118 174.715Z" fill="#B6A185"/>
<path d="M73.8118 136.425H11.1816C10.1871 136.425 9.38086 137.231 9.38086 138.225V168.334C9.38086 169.328 10.1871 170.135 11.1816 170.135H73.8118C74.8063 170.135 75.6125 169.328 75.6125 168.334V138.225C75.6125 137.231 74.8063 136.425 73.8118 136.425Z" fill="#B6A185"/>
<path d="M82.6942 125.914H61.9189V196.057H82.6942V125.914Z" fill="#FFD7D3"/>
<path d="M109.317 125.914H88.542V196.057H109.317V125.914Z" fill="#FFD7D3"/>
<path d="M22.4997 115.49C22.4997 115.49 22.2331 105.267 32.6721 97.0503C32.6667 97.0503 33.1601 108.721 22.4997 115.49Z" fill="#B4613E"/>
<path d="M56.2328 103.336L52.761 93.3797C52.5723 92.8387 52.1764 92.3947 51.6604 92.1455C51.1444 91.8963 50.5505 91.8622 50.0094 92.0508L41.1191 95.1499C40.5781 95.3386 40.1341 95.7345 39.8849 96.2505C39.6356 96.7665 39.6016 97.3603 39.7902 97.9014L41.1605 101.832L40.1935 103.057C39.3916 104.08 39.027 105.378 39.1795 106.669C39.332 107.959 39.9892 109.137 41.0075 109.945L44.0904 112.378C45.1133 113.18 46.4122 113.544 47.7031 113.392C48.994 113.239 50.1721 112.582 50.98 111.564L55.662 105.621C55.968 105.336 56.1848 104.969 56.2861 104.563C56.3875 104.158 56.3689 103.731 56.2328 103.336Z" fill="#FFD7D3"/>
<path d="M68.322 43.2793H102.259C105.434 43.2793 108.48 44.5408 110.725 46.7862C112.971 49.0316 114.232 52.077 114.232 55.2525V109.383C114.232 110.121 113.939 110.829 113.417 111.35C112.896 111.872 112.188 112.165 111.45 112.165H59.1327C58.3949 112.165 57.6872 111.872 57.1655 111.35C56.6437 110.829 56.3506 110.121 56.3506 109.383V55.2507C56.3511 52.0758 57.6125 49.0311 59.8575 46.7862C62.1024 44.5412 65.1471 43.2798 68.322 43.2793Z" fill="#AA3A70"/>
<path d="M62.9358 44.5688C50.3827 53.1908 35.8993 66.3832 33.9167 81.4843C33.0721 87.922 35.4923 96.272 38.7247 101.903C38.9047 102.204 39.1028 102.521 39.4306 102.634C39.7907 102.76 40.1905 102.594 40.5416 102.434C44.8058 100.462 50.3431 98.0944 54.6073 96.1316C55.2087 95.8543 55.8534 95.5373 56.1578 94.9485C56.4891 94.311 56.3288 93.5385 56.1578 92.8416C54.7514 87.2034 55.297 82.6583 56.4009 76.9536L62.9358 44.5688Z" fill="#AA3A70"/>
<path d="M130.384 103.057L129.418 101.832L130.789 97.9014C130.882 97.6334 130.922 97.3496 130.905 97.0662C130.889 96.7829 130.817 96.5055 130.693 96.25C130.57 95.9945 130.397 95.7658 130.185 95.577C129.973 95.3883 129.726 95.2431 129.458 95.1499L120.568 92.0508C120.027 91.8622 119.433 91.8963 118.917 92.1455C118.401 92.3947 118.005 92.8387 117.816 93.3797L114.346 103.336C114.209 103.732 114.189 104.159 114.29 104.566C114.391 104.973 114.608 105.341 114.915 105.627L119.597 111.569C120.405 112.587 121.583 113.244 122.874 113.397C124.165 113.549 125.464 113.185 126.487 112.383L129.57 109.95C130.59 109.143 131.248 107.964 131.401 106.672C131.554 105.38 131.188 104.08 130.384 103.057Z" fill="#FFD7D3"/>
<path d="M107.643 44.5688C120.196 53.1908 134.679 66.3832 136.66 81.4843C137.504 87.922 135.086 96.272 131.854 101.903C131.674 102.204 131.474 102.521 131.146 102.634C130.786 102.76 130.386 102.594 130.037 102.434C125.771 100.462 120.235 98.0944 115.969 96.1316C115.368 95.8543 114.725 95.5373 114.419 94.9485C114.087 94.311 114.239 93.5385 114.419 92.8416C115.825 87.2034 115.28 82.6583 114.176 76.9536L107.643 44.5688Z" fill="#AA3A70"/>
<path d="M68.8271 36.8986H101.759C101.759 36.8986 102.076 27.8948 103.607 23.1444C103.837 22.4241 103.659 21.6678 102.96 21.621C95.6349 21.1438 68.8271 16.1395 68.8271 36.8986Z" fill="white"/>
<path d="M101.759 36.8992C101.759 43.8195 94.387 49.4306 85.2932 49.4306C76.1994 49.4306 68.8271 43.8195 68.8271 36.8992H101.759Z" fill="#FFD7D3"/>
<path d="M82.3675 41.4246C82.9901 41.4246 83.4948 40.753 83.4948 39.9246C83.4948 39.0961 82.9901 38.4246 82.3675 38.4246C81.7449 38.4246 81.2402 39.0961 81.2402 39.9246C81.2402 40.753 81.7449 41.4246 82.3675 41.4246Z" fill="black"/>
<path d="M88.2161 41.4246C88.8387 41.4246 89.3434 40.753 89.3434 39.9246C89.3434 39.0961 88.8387 38.4246 88.2161 38.4246C87.5936 38.4246 87.0889 39.0961 87.0889 39.9246C87.0889 40.753 87.5936 41.4246 88.2161 41.4246Z" fill="black"/>
<path d="M59.1367 112.16L61.0581 155.835C61.0665 156.02 61.146 156.195 61.2802 156.324C61.4144 156.452 61.5929 156.523 61.7784 156.523H82.7266C82.9092 156.523 83.0852 156.455 83.2189 156.33C83.3526 156.206 83.4341 156.035 83.4469 155.853L85.0675 132.578L87.1006 155.866C87.1164 156.046 87.1992 156.213 87.3326 156.335C87.466 156.457 87.6403 156.524 87.8209 156.523H109.556C109.742 156.523 109.921 156.452 110.055 156.323C110.189 156.194 110.268 156.019 110.276 155.833L112.043 112.16H59.1367Z" fill="white"/>
<path d="M61.9187 195.459C61.9187 195.459 60.2764 201.671 53.574 202.928C48.4743 203.884 47.0121 208.363 46.6051 210.448C46.5784 210.579 46.5811 210.714 46.6132 210.844C46.6453 210.974 46.7058 211.095 46.7905 211.198C46.8752 211.302 46.9818 211.385 47.1027 211.442C47.2235 211.499 47.3556 211.529 47.4893 211.529H81.7936C82.0324 211.529 82.2614 211.434 82.4303 211.265C82.5991 211.096 82.694 210.867 82.694 210.628V195.466L61.9187 195.459Z" fill="white"/>
<path d="M109.317 195.459C109.317 195.459 110.961 201.671 117.662 202.928C122.763 203.884 124.224 208.363 124.631 210.448C124.658 210.579 124.655 210.714 124.623 210.844C124.591 210.974 124.53 211.095 124.445 211.198C124.361 211.302 124.254 211.385 124.133 211.442C124.012 211.499 123.88 211.529 123.747 211.529H89.4424C89.2036 211.529 88.9746 211.434 88.8057 211.265C88.6369 211.096 88.542 210.867 88.542 210.628V195.466L109.317 195.459Z" fill="white"/>
<path d="M24.9104 115.823C24.9104 115.823 13.3856 108.723 11.8369 91.2139C11.8369 91.2139 25.1229 99.1138 24.9104 115.823Z" fill="#B4613E"/>
<path d="M138.758 211.522V205.327" stroke="#A4A4A4" stroke-width="0.720301" stroke-miterlimit="10"/>
<path d="M33.7913 110.528H13.4428C13.3036 110.528 13.166 110.558 13.039 110.615C12.912 110.672 12.7986 110.755 12.7062 110.86C12.6138 110.964 12.5445 111.086 12.503 111.219C12.4614 111.352 12.4484 111.492 12.465 111.63L14.9302 132.051C14.9592 132.29 15.0744 132.509 15.2542 132.669C15.434 132.828 15.6659 132.917 15.9062 132.917H31.3225C31.5628 132.917 31.7947 132.828 31.9745 132.669C32.1542 132.509 32.2695 132.29 32.2985 132.051L34.7619 111.63C34.779 111.493 34.7666 111.353 34.7257 111.22C34.6847 111.088 34.6162 110.965 34.5244 110.861C34.4327 110.757 34.3199 110.673 34.1936 110.616C34.0672 110.559 33.9301 110.529 33.7913 110.528Z" fill="#FFE7C8"/>
<path d="M16.6019 180.145H11.1816C10.1871 180.145 9.38086 180.951 9.38086 181.946V206.625C9.38086 207.62 10.1871 208.426 11.1816 208.426H16.6019C17.5964 208.426 18.4026 207.62 18.4026 206.625V181.946C18.4026 180.951 17.5964 180.145 16.6019 180.145Z" fill="#C9E9FF"/>
<path d="M16.057 180.86H11.7226C10.8365 180.86 10.1182 181.579 10.1182 182.465V206.103C10.1182 206.989 10.8365 207.708 11.7226 207.708H16.057C16.9432 207.708 17.6615 206.989 17.6615 206.103V182.465C17.6615 181.579 16.9432 180.86 16.057 180.86Z" fill="#FFF4E8"/>
<path d="M25.6234 180.145H20.2031C19.2086 180.145 18.4023 180.951 18.4023 181.946V206.625C18.4023 207.62 19.2086 208.426 20.2031 208.426H25.6234C26.6179 208.426 27.4241 207.62 27.4241 206.625V181.946C27.4241 180.951 26.6179 180.145 25.6234 180.145Z" fill="#C9E9FF"/>
<path d="M34.1997 179.604L28.8739 180.611C27.8967 180.796 27.2543 181.738 27.4391 182.715L32.0255 206.964C32.2103 207.942 33.1523 208.584 34.1295 208.399L39.4554 207.392C40.4326 207.207 41.0749 206.265 40.8901 205.288L36.3038 181.038C36.1189 180.061 35.1769 179.419 34.1997 179.604Z" fill="#FFF4E8"/>
<path d="M25.0795 180.86H20.7451C19.859 180.86 19.1406 181.579 19.1406 182.465V206.103C19.1406 206.989 19.859 207.708 20.7451 207.708H25.0795C25.9656 207.708 26.684 206.989 26.684 206.103V182.465C26.684 181.579 25.9656 180.86 25.0795 180.86Z" fill="#FFF4E8"/>
<path d="M33.7993 180.409L29.5404 181.215C28.6697 181.379 28.0974 182.219 28.262 183.089L32.655 206.316C32.8196 207.187 33.659 207.759 34.5297 207.594L38.7886 206.789C39.6593 206.624 40.2316 205.785 40.0669 204.914L35.674 181.687C35.5093 180.817 34.67 180.244 33.7993 180.409Z" fill="white"/>
<path d="M56.3981 76.9446L62.436 112.16H59.1946C58.8205 112.16 58.45 112.086 58.1043 111.943C57.7587 111.8 57.4447 111.59 57.1802 111.325C56.9158 111.06 56.7062 110.746 56.5633 110.4C56.4205 110.054 56.3472 109.684 56.3477 109.309L56.3981 76.9446Z" fill="#72244A"/>
<path d="M77.3754 195.459H82.7236V156.527H76.4102L77.3754 195.459Z" fill="#FBCFCF"/>
<path d="M88.542 195.459H93.8902L95.1868 156.527H88.542V195.459Z" fill="#FBCFCF"/>
</g>
<defs>
<clipPath id="clip0_8541_195515">
<rect width="139" height="211.522" fill="white"/>
</clipPath>
</defs>
</svg>
