<svg width="169" height="188" viewBox="0 0 169 188" fill="none" xmlns="http://www.w3.org/2000/svg">
<g clip-path="url(#clip0_8541_195423)">
<path d="M86.0363 126.032H119.419C146.373 126.032 168.265 147.923 168.265 174.895V178.262C168.265 182.305 164.986 185.585 160.945 185.585H86.045C82.0041 185.585 78.7246 182.305 78.7246 178.262V133.355C78.7246 129.313 82.0041 126.032 86.045 126.032H86.0363Z" fill="#E1EDFF"/>
<path d="M157.57 172.584H86.0362C81.9953 172.584 78.7158 169.304 78.7158 165.261V178.271C78.7158 182.314 81.9953 185.594 86.0362 185.594H160.936C164.977 185.594 168.256 182.314 168.256 178.271V174.904C168.256 171.866 167.962 168.897 167.434 166.006C165.825 169.866 162.009 172.584 157.561 172.584H157.57Z" fill="white"/>
<path d="M86.3311 188.001C103.095 188.001 116.686 174.406 116.686 157.635C116.686 140.865 103.095 127.27 86.3311 127.27C69.5667 127.27 55.9766 140.865 55.9766 157.635C55.9766 174.406 69.5667 188.001 86.3311 188.001Z" fill="#444444"/>
<path d="M86.3307 182.685C100.161 182.685 111.372 171.47 111.372 157.634C111.372 143.799 100.161 132.584 86.3307 132.584C72.5006 132.584 61.2891 143.799 61.2891 157.634C61.2891 171.47 72.5006 182.685 86.3307 182.685Z" fill="#AEC3E2"/>
<path d="M143.866 132.585C143.866 132.585 152.259 105.656 142.221 98.6876C132.184 91.7195 92.6401 92.9486 90.996 69.3783C89.352 45.808 104.867 36.4508 98.0482 23.6053C91.2296 10.7598 69.9867 3.25501 68.282 13.3739C66.5774 23.4928 65.5564 31.5602 65.5564 31.5602L57.0332 29.3962C57.0332 29.3962 58.4004 18.1434 59.9839 10.5261C61.5673 2.90877 67.7109 -2.65704 84.1861 1.31607C100.661 5.28918 111.798 21.3201 106.346 41.3242C100.895 61.3282 96.5772 76.4503 119.983 82.4749C143.39 88.4995 156.689 89.9796 154.751 117.255C152.813 144.53 153.323 139.708 153.323 139.708L143.866 132.576V132.585Z" fill="#444444"/>
<path d="M59.2706 60.3048L52.6924 59.0935C51.7712 58.9239 50.887 59.5334 50.7174 60.4549L32.1123 161.564C31.9428 162.485 32.5521 163.37 33.4732 163.539L40.0515 164.751C40.9726 164.92 41.8569 164.311 42.0264 163.389L60.6315 62.2805C60.8011 61.359 60.1918 60.4745 59.2706 60.3048Z" fill="white"/>
<path d="M58.5047 33.5716L55.0241 32.9307C51.9926 32.3724 49.0828 34.3783 48.5248 37.4108L45.6675 52.9385C45.1095 55.971 47.1146 58.8819 50.1461 59.4401L53.6267 60.081C56.6581 60.6392 59.5679 58.6334 60.126 55.6009L62.9832 40.0732C63.5412 37.0407 61.5361 34.1298 58.5047 33.5716Z" fill="#0C6DFF"/>
<path d="M67.6655 30.7967L55.3516 28.5292C54.7594 28.4202 54.1909 28.812 54.0819 29.4044L48.2828 60.9195C48.1738 61.5119 48.5655 62.0805 49.1577 62.1896L61.4716 64.4571C62.0638 64.5661 62.6323 64.1743 62.7413 63.5819L68.5404 32.0668C68.6494 31.4744 68.2577 30.9058 67.6655 30.7967Z" fill="#D0E3FF"/>
<path d="M40.6091 166.62L30.3035 165.997C6.36941 166.828 0.788259 176.375 0.788259 176.375C0.286388 177.077 -0.0078125 177.925 -0.0078125 178.851C-0.0078125 181.214 1.90449 183.127 4.26674 183.127H39.9515C42.3137 183.127 44.2261 181.214 44.2261 178.851C44.4424 177.509 40.6005 166.62 40.6005 166.62H40.6091Z" fill="#E1EDFF"/>
<path d="M42.8075 160.699L32.3403 158.772C31.969 158.703 31.6126 158.949 31.5442 159.32L30.3145 166.003C30.2462 166.375 30.4918 166.731 30.8631 166.799L41.3303 168.727C41.7016 168.795 42.058 168.55 42.1264 168.178L43.3561 161.496C43.4244 161.124 43.1788 160.768 42.8075 160.699Z" fill="#74ABFD"/>
<path d="M31.6884 185.594C36.0467 185.594 39.5799 182.059 39.5799 177.699C39.5799 173.34 36.0467 169.805 31.6884 169.805C27.33 169.805 23.7969 173.34 23.7969 177.699C23.7969 182.059 27.33 185.594 31.6884 185.594Z" fill="#444444"/>
<path d="M31.6896 184.209C35.2834 184.209 38.1966 181.294 38.1966 177.699C38.1966 174.104 35.2834 171.19 31.6896 171.19C28.0959 171.19 25.1826 174.104 25.1826 177.699C25.1826 181.294 28.0959 184.209 31.6896 184.209Z" fill="#AEC3E2"/>
</g>
<defs>
<clipPath id="clip0_8541_195423">
<rect width="168.265" height="188" fill="white"/>
</clipPath>
</defs>
</svg>
