<svg width="63" height="22" viewBox="0 0 63 22" fill="none" xmlns="http://www.w3.org/2000/svg">
<rect y="1" width="63" height="20" rx="10" fill="#EDEDED"/>
<path d="M17.6878 17.2086V4.86188H19.1478V17.2086H17.6878ZM13.8688 9.42541H15.2369V5.12293H16.6775V16.5994H15.2369V10.7838H13.8688V9.42541ZM13.308 7.55456V12.8819C13.6948 12.8481 14.0622 12.8094 14.4102 12.761L14.5117 13.8584C12.5587 14.2597 10.0159 14.308 8.44959 14.308L8.27555 13.0511C8.60912 13.0511 8.98619 13.0511 9.39227 13.0463V7.55456H8.5221V6.32666H14.1782V7.55456H13.308ZM11.9157 7.55456H10.7555V13.0173C11.1374 13.0076 11.529 12.9931 11.9157 12.9738V7.55456ZM29.362 9.40608V4.86188H30.8703V17.2376H29.362V10.634H27.0271C26.8676 13.0221 25.6058 14.5014 23.8848 14.4965C22.0285 14.5014 20.7087 12.8094 20.7184 10.1215C20.7087 7.45304 22.0285 5.76105 23.8848 5.75621C25.5575 5.76105 26.7951 7.15331 27.0126 9.40608H29.362ZM23.8848 13.1236C24.9097 13.1236 25.601 12.0214 25.6058 10.1215C25.601 8.23619 24.9097 7.12914 23.8848 7.12914C22.8696 7.12914 22.1687 8.23619 22.1735 10.1215C22.1687 12.0214 22.8696 13.1236 23.8848 13.1236ZM41.4423 9.41091V4.86188H42.9554V17.2376H41.4423V10.6581H39.3152V9.41091H41.4423ZM34.568 10.4599V13.0608C36.405 13.0511 37.8795 12.9883 39.5425 12.6934L39.6681 13.9406C37.8263 14.2597 36.173 14.3273 34.0459 14.3322H33.0597V9.23688H37.1205V7.16782H33.021V5.93508H38.6094V10.4599H34.568Z" fill="#1F1F1F"/>
<path fill-rule="evenodd" clip-rule="evenodd" d="M52.0909 14.1818C54.3503 14.1818 56.1818 12.3503 56.1818 10.0909C56.1818 7.83156 54.3503 6 52.0909 6C49.8316 6 48 7.83156 48 10.0909C48 12.3503 49.8316 14.1818 52.0909 14.1818ZM52.0911 13.2727C53.8484 13.2727 55.2729 11.8481 55.2729 10.0908C55.2729 8.33357 53.8484 6.90902 52.0911 6.90902C50.3338 6.90902 48.9093 8.33357 48.9093 10.0908C48.9093 11.8481 50.3338 13.2727 52.0911 13.2727Z" fill="#9E9E9E"/>
<path d="M54.3633 12.8184L57.5451 16.0002" stroke="#9E9E9E" stroke-width="0.909091"/>
</svg>
