<svg width="95" height="108" viewBox="0 0 95 108" fill="none" xmlns="http://www.w3.org/2000/svg">
<path d="M12.4968 92.9296C13.2907 90.3082 12.459 87.7364 10.6391 87.1852C8.81917 86.634 6.70023 88.3122 5.90629 90.9335C5.11236 93.5549 5.94408 96.1268 7.764 96.678C9.58391 97.2292 11.7029 95.551 12.4968 92.9296Z" fill="#43437D"/>
<path d="M8.02804 102.033C8.82197 99.4115 7.99025 96.8396 6.17034 96.2884C4.35042 95.7372 2.23148 97.4154 1.43754 100.037C0.643611 102.658 1.47533 105.23 3.29525 105.781C5.11516 106.332 7.23411 104.654 8.02804 102.033Z" fill="#43437D"/>
<path d="M47.531 21.9136C53.5823 21.9136 58.4878 17.008 58.4878 10.9568C58.4878 4.90551 53.5823 0 47.531 0C41.4797 0 36.5742 4.90551 36.5742 10.9568C36.5742 17.008 41.4797 21.9136 47.531 21.9136Z" fill="#43437D"/>
<path d="M47.0211 23.5058C52.7908 23.5058 57.468 19.9979 57.468 15.6706C57.468 11.3434 52.7908 7.83545 47.0211 7.83545C41.2515 7.83545 36.5742 11.3434 36.5742 15.6706C36.5742 19.9979 41.2515 23.5058 47.0211 23.5058Z" fill="#A82A2A"/>
<path d="M93.9498 61.5303C93.9498 86.8538 72.9247 107.386 46.99 107.386C21.0553 107.386 0.0302734 86.8436 0.0302734 61.5303L19.9101 54.6794L93.9498 61.5303Z" fill="#FFDEDB"/>
<path d="M46.9483 80.9021H42.8398C42.62 80.9025 42.4037 80.957 42.2099 81.0607C42.0161 81.1644 41.8508 81.3142 41.7285 81.4968C41.6062 81.6795 41.5307 81.8894 41.5087 82.1081C41.4867 82.3268 41.5187 82.5475 41.6021 82.7509C42.0261 83.8171 42.7604 84.7314 43.7099 85.3756C44.6594 86.0198 45.7803 86.3642 46.9277 86.3642C48.0751 86.3642 49.1961 86.0198 50.1456 85.3756C51.095 84.7314 51.8293 83.8171 52.2533 82.7509C52.3379 82.548 52.371 82.3273 52.3498 82.1085C52.3286 81.8897 52.2537 81.6796 52.1318 81.4967C52.0099 81.3138 51.8446 81.1638 51.6508 81.0601C51.457 80.9564 51.2406 80.9021 51.0208 80.9021H46.9483Z" fill="#FF8E83"/>
<path d="M0.275529 66.5991C0.275529 66.5991 18.2719 66.5987 44.3892 57.4577C44.3892 57.4577 67.8947 63.987 93.4966 67.6005C93.4966 67.6005 94.6418 56.03 93.4966 52.0962C75.2704 53.0822 19.801 52.8665 0.275529 55.5114C-0.0918431 59.1981 -0.0918431 62.9123 0.275529 66.5991Z" fill="#43437D"/>
<path d="M0.12207 57.4019C0.12207 44.9487 5.06903 33.0057 13.8747 24.2C22.6804 15.3943 34.6235 10.4473 47.0767 10.4473C59.5298 10.4473 71.4729 15.3943 80.2786 24.2C89.0843 33.0057 94.0313 44.9487 94.0313 57.4019" fill="#43437D"/>
<path d="M20.003 67.6532C18.8808 71.8413 26.2731 77.461 31.8462 78.9543C37.4192 80.4477 42.8468 78.263 43.969 74.0748C45.0912 69.8867 41.4832 65.2809 35.9101 63.7876C30.337 62.2943 21.1253 63.465 20.003 67.6532Z" fill="#212121"/>
<path d="M74.0258 67.6525C72.9036 63.4643 63.6919 62.2937 58.1188 63.787C52.5457 65.2803 48.9376 69.886 50.0599 74.0742C51.1821 78.2623 56.6096 80.4469 62.1827 78.9536C67.7558 77.4603 75.1481 71.8407 74.0258 67.6525Z" fill="#212121"/>
<line x1="41.7783" y1="72.9615" x2="52.2252" y2="72.9615" stroke="#212121" stroke-width="0.333336"/>
</svg>
