<svg width="147" height="199" viewBox="0 0 147 199" fill="none" xmlns="http://www.w3.org/2000/svg">
<g clip-path="url(#clip0_8473_195529)">
<path d="M105.622 69.3153L99.836 65.8871C98.4375 65.0585 96.6313 65.5194 95.8019 66.9166L85.9355 83.5379C85.1061 84.9351 85.5674 86.7396 86.966 87.5682L92.7521 90.9964C94.1507 91.8251 95.9568 91.3641 96.7862 89.9669L106.653 73.3456C107.482 71.9484 107.021 70.144 105.622 69.3153Z" fill="#C4C4C4"/>
<path d="M60.7342 198.984C94.2768 198.984 121.468 171.818 121.468 138.307C121.468 104.796 94.2768 77.6296 60.7342 77.6296C27.1916 77.6296 0 104.796 0 138.307C0 171.818 27.1916 198.984 60.7342 198.984Z" fill="#101010"/>
<path d="M60.7352 186.697C87.4854 186.697 109.171 165.032 109.171 138.307C109.171 111.582 87.4854 89.9167 60.7352 89.9167C33.9851 89.9167 12.2998 111.582 12.2998 138.307C12.2998 165.032 33.9851 186.697 60.7352 186.697Z" fill="#424142"/>
<path d="M141.998 1.42307C137.155 -1.43921 130.902 0.157974 128.037 4.98116L93.6894 62.8436C91.9957 65.6901 92.9454 69.3431 95.7788 71.0351L103.012 75.3206C105.862 77.0127 109.518 76.0639 111.212 73.2332L145.56 15.3708C148.425 10.5318 146.826 4.28536 141.998 1.42307ZM136.806 13.5206C134.511 13.5206 132.644 11.6546 132.644 9.36157C132.644 7.06857 134.511 5.20255 136.806 5.20255C139.102 5.20255 140.969 7.06857 140.969 9.36157C140.969 11.6546 139.102 13.5206 136.806 13.5206Z" fill="#8EC431"/>
<path d="M81.0596 139.857C80.4423 138.56 80.1732 137.137 80.2682 135.714C80.284 135.334 80.2999 134.939 80.2999 134.543C80.2999 121.545 69.4415 111.06 56.3038 111.677C44.4956 112.214 34.8244 122.035 34.4761 133.848C34.1754 143.984 40.4752 152.698 49.4025 156.018C51.5393 156.809 53.4863 158.043 55.2116 159.545C58.6622 162.518 63.3316 164.115 68.381 163.419C75.7096 162.423 81.5978 156.461 82.5317 149.139C82.9591 145.803 82.3734 142.624 81.0596 139.873V139.857Z" fill="white"/>
<path d="M57.2352 144.885C63.2671 144.885 68.1569 140 68.1569 133.974C68.1569 127.947 63.2671 123.062 57.2352 123.062C51.2033 123.062 46.3135 127.947 46.3135 133.974C46.3135 140 51.2033 144.885 57.2352 144.885Z" fill="#F5D538"/>
</g>
<defs>
<clipPath id="clip0_8473_195529">
<rect width="147" height="199" fill="white"/>
</clipPath>
</defs>
</svg>
