<svg width="174" height="29" viewBox="0 0 174 29" fill="none" xmlns="http://www.w3.org/2000/svg">
<path fill-rule="evenodd" clip-rule="evenodd" d="M5 0C2.23858 0 0 2.23858 0 5V19C0 21.7614 2.23858 24 5 24H17.6132L20.5 29L23.3868 24H169C171.761 24 174 21.7614 174 19V5C174 2.23858 171.761 0 169 0H5Z" fill="#0C6DFF"/>
<path d="M15.8646 12.192V6.45304H17.1699V12.192H15.8646ZM11.7251 9.93784C11.2486 10.9945 10.3412 11.8315 9.08149 12.2293L8.41851 11.2058C10.1174 10.7044 11.0373 9.43646 11.0539 8.12293H8.77486V7.07873H14.605V8.12293H12.3757C12.3881 9.36188 13.2997 10.5594 14.9696 11.0318L14.3191 12.047C13.0925 11.6865 12.2058 10.9199 11.7251 9.93784ZM11.4517 13.7459H15.8729V12.6561H17.1699V16.9116H10.1713V12.6561H11.4517V13.7459ZM11.4517 15.8591H15.8729V14.761H11.4517V15.8591ZM27.081 6.45304V9.55249H28.5603V10.634H27.081V14.1975H25.7716V6.45304H27.081ZM24.5534 9.81768C24.5451 11.3633 23.3103 12.482 21.6984 12.482C20.0866 12.482 18.831 11.3633 18.8393 9.81768C18.831 8.25967 20.0866 7.15746 21.6984 7.15746C23.3103 7.15746 24.5451 8.25967 24.5534 9.81768ZM20.1197 9.81768C20.1114 10.7417 20.8117 11.3425 21.6984 11.3425C22.5935 11.3425 23.2772 10.7417 23.2813 9.81768C23.2772 8.88536 22.5935 8.29282 21.6984 8.29282C20.8117 8.29282 20.1114 8.88536 20.1197 9.81768ZM20.2937 13.3854H21.5907V15.7804H27.4954V16.837H20.2937V13.3854ZM36.6068 6.45304H37.9121V11.7983H36.6068V6.45304ZM34.8996 9.1837C34.8955 10.5801 33.7021 11.5663 32.0985 11.5704C30.4784 11.5663 29.2809 10.5801 29.285 9.1837C29.2809 7.78729 30.4784 6.79282 32.0985 6.78867C33.7021 6.79282 34.8955 7.78729 34.8996 9.1837ZM30.553 9.1837C30.5447 10 31.2035 10.5138 32.0985 10.5138C32.9853 10.5138 33.6358 10 33.6358 9.1837C33.6358 8.37569 32.9853 7.86188 32.0985 7.86602C31.2035 7.86188 30.5447 8.37569 30.553 9.1837ZM32.1814 15.0304V15.8798H38.2311V16.9116H30.9135V14.0691H36.6151V13.2776H30.8803V12.2624H37.9121V15.0304H32.1814ZM44.2846 10.2569C41.8729 10.2528 40.4641 9.6105 40.4683 8.42541C40.4641 7.25691 41.8729 6.61464 44.2846 6.61464C46.6962 6.61464 48.0967 7.25691 48.0967 8.42541C48.0967 9.6105 46.6962 10.2528 44.2846 10.2569ZM44.2846 7.57597C42.6685 7.57597 41.8232 7.8826 41.8315 8.42541C41.8232 9.01381 42.6685 9.28315 44.2846 9.28729C45.9171 9.28315 46.7583 9.01381 46.7583 8.42541C46.7583 7.8826 45.9171 7.57597 44.2846 7.57597ZM39.4655 11.8646V10.8246H49.116V11.8646H39.4655ZM47.9144 15.1671H41.8895V15.9544H48.2044V16.9489H40.6133V14.2431H46.6299V13.5428H40.6009V12.5732H47.9144V15.1671ZM60.5613 17.0359V6.45304H61.7961V17.0359H60.5613ZM57.0309 10.5221H58.419V6.65193H59.6414V16.5262H58.419V11.5953H57.0309V10.5221ZM55.9204 9.35359V9.68508C55.9204 11.326 56.5917 12.9751 58.0751 13.7749L57.35 14.732C56.3597 14.2141 55.6925 13.2818 55.3155 12.1671C54.9425 13.3688 54.2754 14.3964 53.2809 14.9807L52.5226 13.9986C54.0226 13.1285 54.6815 11.3591 54.6898 9.68508V9.35359H52.8831V8.3011H54.6898V6.82597H55.9163V8.3011H57.6898V9.35359H55.9204ZM70.9573 17.0359V6.45304H72.1879V17.0359H70.9573ZM67.5305 9.29558H68.7653V6.70994H70.0042V16.5428H68.7653V12.9959H67.112V11.9392H68.7653V10.3564H67.3026C66.8012 12.1174 65.699 13.6257 63.7142 14.8066L62.9435 13.8826C65.1354 12.5815 66.1506 10.9282 66.3454 8.79834H63.5111V7.74171H67.6424C67.6424 8.27624 67.6051 8.7942 67.5305 9.29558ZM80.9969 9.07182V6.45304H82.298V12.768H80.9969V10.1409H79.1985V9.07182H80.9969ZM76.675 10.2279C76.2068 11.3343 75.3284 12.2251 74.0728 12.6478L73.4016 11.6202C75.088 11.0608 75.9913 9.65608 75.9913 8.28039V8.13536H73.7828V7.09116H79.5093V8.13536H77.3173V8.26796C77.3173 9.56077 78.1709 10.8577 79.8076 11.4088L79.1571 12.4199C77.9762 12.0304 77.135 11.2265 76.675 10.2279ZM80.9969 14.3177H75.0756V13.2693H82.298V17.0359H80.9969V14.3177ZM88.6166 7.04144C90.8459 7.04558 92.5655 8.23481 92.5655 10.0414C92.5655 11.8605 90.8459 13.0497 88.6166 13.0414C86.3914 13.0497 84.6801 11.8605 84.6843 10.0414C84.6801 8.23481 86.3914 7.04558 88.6166 7.04144ZM88.6166 8.09807C87.0751 8.09392 85.9356 8.8605 85.9439 10.0414C85.9356 11.2348 87.0751 11.9765 88.6166 11.9765C90.158 11.9765 91.2851 11.2348 91.2851 10.0414C91.2851 8.8605 90.158 8.09392 88.6166 8.09807ZM83.7975 14.645H93.4812V15.7058H83.7975V14.645ZM99.6341 13.0083V14.7362H103.852V15.8135H94.1686V14.7362H98.3413V13.0083H95.3164V9.5442H101.416V8.22652H95.2998V7.17403H102.705V10.576H96.6175V11.9434H102.949V13.0083H99.6341ZM115.683 10.6713H117.316V11.7445H115.683V17.0359H114.394V6.45304H115.683V10.6713ZM109.832 6.60221H111.133V8.0732H113.578V9.12569H107.329V8.0732H109.832V6.60221ZM110.491 9.80939C112.016 9.80939 113.147 10.8412 113.155 12.3039C113.147 13.7666 112.016 14.7942 110.491 14.7942C108.945 14.7942 107.81 13.7666 107.818 12.3039C107.81 10.8412 108.945 9.80939 110.491 9.80939ZM110.491 13.7169C111.307 13.7251 111.9 13.174 111.908 12.3039C111.9 11.4461 111.307 10.8785 110.491 10.8785C109.662 10.8785 109.057 11.4461 109.066 12.3039C109.057 13.174 109.662 13.7251 110.491 13.7169ZM125.988 13.4434L124.67 13.3025C125.084 11.2472 125.089 9.74309 125.093 8.46685H118.765V7.41851H126.402V8.43784C126.398 9.75552 126.398 11.2307 125.988 13.4434ZM122.615 10.924V14.6077H127.409V15.6768H117.758V14.6077H121.322V10.924H122.615ZM135.642 6.46133H136.947V12.3329H135.642V6.46133ZM131.42 9.80525C130.939 10.8909 130.036 11.7528 128.764 12.1588L128.13 11.1312C129.841 10.5925 130.736 9.24586 130.736 7.86188V6.83011H132.083V7.86188C132.074 9.18784 132.969 10.4558 134.652 10.9448L134.018 11.9765C132.783 11.5953 131.9 10.8122 131.42 9.80525ZM135.679 13.895V15.8591H137.109V16.9116H129.7V15.8591H131.138V13.895H129.795V12.8591H137.009V13.895H135.679ZM134.391 13.895H132.431V15.8591H134.391V13.895ZM146.796 10.4682H148.429V11.5373H146.796V17.0608H145.491V6.45304H146.796V10.4682ZM140.233 8.50829V13.3812C141.886 13.3688 143.187 13.2942 144.646 13.0331L144.795 14.1312C143.15 14.4171 141.724 14.4669 139.806 14.4627H138.936V7.45166H143.892V8.50829H140.233ZM156.442 11.5041H154.304V12.4157H149.332V7.33564H154.304V8.18508H156.442V6.46133H157.743V14.1685H156.442V11.5041ZM150.625 11.3923H153.024V8.37569H150.625V11.3923ZM156.442 10.4599V9.24586H154.304V10.4599H156.442ZM152.079 13.4558V15.7804H157.975V16.837H150.761V13.4558H152.079ZM162.409 13.5097H161.037V13.4019C161.045 11.9061 161.468 11.4503 162.201 10.9903C162.707 10.6754 163.088 10.2818 163.088 9.69751C163.088 9.03867 162.578 8.62017 161.94 8.62017C161.356 8.62017 160.793 8.99309 160.751 9.7721H159.284C159.33 8.20166 160.503 7.39779 161.949 7.39779C163.527 7.39779 164.617 8.28039 164.617 9.67265C164.617 10.6257 164.141 11.2472 163.382 11.703C162.703 12.1133 162.421 12.5193 162.409 13.4019V13.5097ZM161.758 16.0912C161.257 16.0912 160.842 15.6851 160.851 15.1837C160.842 14.6865 161.257 14.2845 161.758 14.2845C162.247 14.2845 162.661 14.6865 162.665 15.1837C162.661 15.6851 162.247 16.0912 161.758 16.0912Z" fill="white"/>
</svg>
