<svg width="55" height="69" viewBox="0 0 55 69" fill="none" xmlns="http://www.w3.org/2000/svg">
<g clip-path="url(#clip0_8415_194962)">
<path d="M10.9012 66.5337C9.58049 66.5332 8.27473 66.2543 7.06898 65.7154C5.86324 65.1765 4.78458 64.3896 3.90327 63.4059C3.02196 62.4223 2.35779 61.264 1.95402 60.0065C1.55026 58.7491 1.41597 57.4206 1.5599 56.1078L3.43642 39.0465C3.62407 32.2686 6.00724 16.1531 23.6502 9.32257C23.6496 9.21194 23.6584 9.10145 23.6765 8.9923C22.8859 8.22703 22.334 7.24906 22.0876 6.17671C21.8411 5.10436 21.9107 3.98357 22.2879 2.94993L22.7608 1.74896L24.018 2.03794C25.4183 2.31535 26.7018 3.0101 27.6997 4.0308C28.6955 3.00924 29.9781 2.31427 31.3777 2.03794L32.635 1.74896L33.1079 2.94993C33.4942 4.00483 33.5595 5.15049 33.2957 6.24248C33.0319 7.33448 32.4507 8.32394 31.6254 9.08613C31.6254 9.16494 31.6254 9.24751 31.6254 9.33008V9.43141C49.0319 16.3182 51.3851 32.3249 51.5727 39.0465L53.4493 56.1078C53.5933 57.4213 53.4588 58.7503 53.0546 60.0083C52.6504 61.2663 51.9855 62.425 51.1034 63.4087C50.2213 64.3925 49.1417 65.1793 47.935 65.7177C46.7284 66.2562 45.4218 66.5342 44.1005 66.5337H10.9012Z" fill="#C3C6C9"/>
<path d="M31.7006 3.50157C31.7006 3.50157 32.9466 6.66162 29.6815 8.677C29.8119 8.72934 29.9238 8.81947 30.0027 8.93582C30.0816 9.05217 30.1239 9.18944 30.1243 9.33003V10.4071C30.1243 10.4297 30.1243 10.4447 30.1243 10.4634C47.6097 16.8436 49.9065 32.6063 50.0754 39.1478L51.9519 56.2691C52.0726 57.3729 51.9595 58.4896 51.6198 59.5467C51.2801 60.6037 50.7215 61.5774 49.9805 62.4041C49.2394 63.2309 48.3324 63.8923 47.3187 64.3451C46.3049 64.798 45.2071 65.0322 44.0968 65.0325H10.9013C9.79228 65.0301 8.69616 64.7943 7.68421 64.3405C6.67227 63.8868 5.76714 63.2251 5.02769 62.3986C4.28823 61.572 3.73099 60.5991 3.3922 59.5431C3.0534 58.4871 2.94064 57.3716 3.06124 56.2691L4.93775 39.1478C5.11039 32.5688 7.426 16.6672 25.1553 10.3659V9.33003C25.1555 9.17672 25.2058 9.02768 25.2987 8.90569C25.3915 8.7837 25.5217 8.69547 25.6695 8.65448C22.4494 6.6391 23.6879 3.50157 23.6879 3.50157C26.2399 4.08705 27.2908 5.62203 27.7036 7.0069C28.1127 5.62203 29.1635 4.08705 31.7156 3.50157H31.7006ZM33.5621 0L31.0438 0.574213C29.8432 0.838109 28.7075 1.3396 27.7036 2.04915C26.6984 1.33959 25.5615 0.838119 24.3597 0.574213L21.8264 0L20.8769 2.39818C20.507 3.4197 20.366 4.51001 20.464 5.59201C20.5574 6.65495 20.8938 7.6822 21.4473 8.59443C14.3841 11.7094 9.11487 16.6409 5.76341 23.2913C3.36816 28.1742 2.06203 33.5191 1.93533 38.9564L0.0588145 55.9539C-0.107781 57.4768 0.0483559 59.0178 0.517056 60.4764C0.985757 61.935 1.7565 63.2785 2.77908 64.4193C3.80165 65.5602 5.05312 66.4728 6.45193 67.0977C7.85074 67.7226 9.36551 68.0457 10.8976 68.0461H44.0893C45.6214 68.0457 47.1362 67.7226 48.535 67.0977C49.9338 66.4728 51.1852 65.5602 52.2078 64.4193C53.2304 63.2785 54.0011 61.935 54.4698 60.4764C54.9385 59.0178 55.0947 57.4768 54.9281 55.9539L53.0516 38.9564C52.9192 33.5598 51.6251 28.2551 49.2572 23.4039C45.9696 16.8136 40.7867 11.8746 33.8361 8.73705C34.4384 7.79595 34.8053 6.72363 34.9057 5.61078C35.0083 4.52377 34.8672 3.42757 34.4928 2.40194L33.5471 0L33.5621 0Z" fill="white"/>
<path d="M27.4985 9.61145C27.4985 9.61145 26.6128 4.66872 31.7019 3.50153C31.7019 3.50153 33.432 7.87756 27.4985 9.61145Z" fill="#696969"/>
<path d="M27.8776 9.61145C27.8776 9.61145 28.7671 4.66872 23.6742 3.50153C23.6742 3.50153 21.9441 7.87756 27.8776 9.61145Z" fill="#696969"/>
<path d="M27.4971 65.0362C39.9274 65.0362 50.004 54.7562 50.004 42.0752C50.004 29.3941 39.9274 19.1141 27.4971 19.1141C15.0669 19.1141 4.99023 29.3941 4.99023 42.0752C4.99023 54.7562 15.0669 65.0362 27.4971 65.0362Z" fill="#FFDD92"/>
<path d="M4.99059 42.0714C4.99059 42.0714 2.36348 16.7873 27.5088 9.61151V42.0714H4.99059Z" fill="#696969"/>
<path d="M50.0045 42.0714C50.0045 42.0714 52.6316 16.7873 27.4863 9.61151V42.0714H50.0045Z" fill="#696969"/>
<path d="M4.93901 39.1479L3.06249 56.2692C2.94176 57.3729 3.05492 58.4897 3.3946 59.5468C3.73429 60.6038 4.29287 61.5775 5.03395 62.4042C5.77504 63.231 6.682 63.8924 7.69575 64.3452C8.70949 64.7981 9.80728 65.0323 10.9176 65.0325H27.5135V39.1367L4.93901 39.1479Z" fill="#696969"/>
<path d="M50.0725 39.1479L51.949 56.2692C52.0698 57.3729 51.9566 58.4897 51.6169 59.5468C51.2772 60.6038 50.7186 61.5775 49.9776 62.4042C49.2365 63.231 48.3295 63.8924 47.3158 64.3452C46.302 64.7981 45.2042 65.0323 44.0939 65.0325H27.498V39.1367L50.0725 39.1479Z" fill="#696969"/>
<path d="M7.12626 41.6774C7.12626 41.6774 2.99794 64.1768 27.9518 62.2815L7.12626 41.6774Z" fill="#84898E"/>
<path d="M26.9233 8.62451H25.8499C25.4582 8.62451 25.1406 8.94209 25.1406 9.33383V10.4072C25.1406 10.7989 25.4582 11.1165 25.8499 11.1165H26.9233C27.3151 11.1165 27.6326 10.7989 27.6326 10.4072V9.33383C27.6326 8.94209 27.3151 8.62451 26.9233 8.62451Z" fill="#C3C6C9"/>
<path d="M29.4155 8.62451H28.3421C27.9504 8.62451 27.6328 8.94209 27.6328 9.33383V10.4072C27.6328 10.7989 27.9504 11.1165 28.3421 11.1165H29.4155C29.8072 11.1165 30.1248 10.7989 30.1248 10.4072V9.33383C30.1248 8.94209 29.8072 8.62451 29.4155 8.62451Z" fill="#C3C6C9"/>
<path d="M26.3875 12.2048C26.3875 12.2048 24.3008 13.2031 23.4414 15.1509" stroke="#C3C6C9" stroke-width="0.375303" stroke-miterlimit="10"/>
<path d="M31.9907 17.0237C31.9907 17.0237 30.6021 13.0642 28.6543 12.2048" stroke="#C3C6C9" stroke-width="0.375303" stroke-miterlimit="10"/>
</g>
<defs>
<clipPath id="clip0_8415_194962">
<rect width="54.9969" height="68.0349" fill="white"/>
</clipPath>
</defs>
</svg>
