<svg width="44" height="44" viewBox="0 0 44 44" fill="none" xmlns="http://www.w3.org/2000/svg">
<path d="M0.243164 26.5397C0.243164 26.5397 1.68805 34.4608 0.665725 37.3416C0.629433 37.446 0.618261 37.5578 0.633143 37.6676C0.648024 37.7774 0.688527 37.8819 0.75126 37.9725C0.813993 38.063 0.89713 38.137 0.993711 38.1881C1.09029 38.2392 1.19751 38.2661 1.30638 38.2664H6.40664L3.20336 26.535L0.243164 26.5397Z" fill="#AF6B67"/>
<path d="M41.3425 26.5397C41.3425 26.5397 39.8976 34.4608 40.9199 37.3416C40.9562 37.446 40.9674 37.5578 40.9525 37.6676C40.9377 37.7774 40.8971 37.8819 40.8344 37.9725C40.7717 38.063 40.6885 38.137 40.592 38.1881C40.4954 38.2392 40.3882 38.2661 40.2793 38.2664H35.1768L38.3823 26.535L41.3425 26.5397Z" fill="#AF6B67"/>
<path d="M41.5472 23.3558C41.5472 34.7565 32.2464 44.0001 20.7736 44.0001C9.30088 44.0001 0 34.7519 0 23.3558H41.5472Z" fill="#FFDEDB"/>
<path d="M17.0911 30.3913C17.8766 30.3913 18.5133 29.529 18.5133 28.4654C18.5133 27.4017 17.8766 26.5394 17.0911 26.5394C16.3057 26.5394 15.6689 27.4017 15.6689 28.4654C15.6689 29.529 16.3057 30.3913 17.0911 30.3913Z" fill="#212121"/>
<path d="M24.4681 30.3913C25.2535 30.3913 25.8902 29.529 25.8902 28.4654C25.8902 27.4017 25.2535 26.5394 24.4681 26.5394C23.6826 26.5394 23.0459 27.4017 23.0459 28.4654C23.0459 29.529 23.6826 30.3913 24.4681 30.3913Z" fill="#212121"/>
<path d="M20.7704 32.0766H18.953C18.8557 32.0766 18.76 32.101 18.6743 32.1477C18.5885 32.1944 18.5154 32.2619 18.4615 32.3443C18.4076 32.4266 18.3744 32.5212 18.3651 32.6197C18.3557 32.7183 18.3703 32.8176 18.4077 32.9089C18.5962 33.388 18.9213 33.7987 19.3412 34.0879C19.7611 34.3771 20.2566 34.5317 20.7636 34.5317C21.2707 34.5317 21.7661 34.3771 22.186 34.0879C22.6059 33.7987 22.9311 33.388 23.1195 32.9089C23.1564 32.8174 23.1706 32.718 23.1608 32.6195C23.1511 32.5211 23.1177 32.4266 23.0636 32.3444C23.0095 32.2621 22.9364 32.1947 22.8507 32.148C22.7649 32.1013 22.6692 32.0768 22.572 32.0766H20.7704Z" fill="#FF8E83"/>
<path d="M0.137521 25.6378C0.137521 25.6378 8.34792 24.0633 8.80456 20.2692C8.80456 20.2692 25.8047 25.3279 41.3758 26.0886C41.3758 26.0886 41.8801 20.8796 41.3758 19.1085C33.3131 19.5524 8.77502 19.4553 0.137521 20.646C-0.0263092 22.3058 -0.0263092 23.978 0.137521 25.6378Z" fill="#AF6B67"/>
<path d="M0 23.3557H41.5472C41.5472 23.3557 41.9494 10.3388 43.8804 3.45814C44.1712 2.42002 43.944 1.31949 43.0626 1.25475C33.8208 0.563444 0 -6.67791 0 23.3557Z" fill="#FFB0E5"/>
</svg>
