<svg width="66" height="66" viewBox="0 0 66 66" fill="none" xmlns="http://www.w3.org/2000/svg">
<rect width="66" height="66" rx="3.96" fill="#F5F6F8"/>
<rect x="20.1475" width="13.8947" height="11.6875" fill="white"/>
<rect x="6.25195" width="13.8947" height="11.6875" fill="#BEC5CC"/>
<rect x="11.1152" y="11.6875" width="1.38947" height="0.6875" fill="#D1DFEF"/>
<rect x="13.8945" y="11.6875" width="1.38947" height="0.6875" fill="#D1DFEF"/>
<rect x="6.25195" y="30.9375" width="19.4526" height="17.1875" rx="0.66" fill="#EEE1C9"/>
<ellipse cx="11.1149" cy="26.8125" rx="2.77895" ry="2.75" fill="#DAD0C0"/>
<ellipse cx="20.8414" cy="26.8125" rx="2.77895" ry="2.75" fill="#DAD0C0"/>
<ellipse cx="11.1149" cy="52.9375" rx="2.77895" ry="2.75" fill="#DAD0C0"/>
<ellipse cx="20.8414" cy="52.9375" rx="2.77895" ry="2.75" fill="#DAD0C0"/>
<rect x="36.8213" width="20.1474" height="12.375" fill="#D4DCE6"/>
<path d="M62.041 -1.64442e-07C64.228 -7.36235e-08 66.001 1.77295 66.001 3.96L66.001 57.75L53.4957 57.75L53.4957 -5.19291e-07L62.041 -1.64442e-07Z" fill="#D4DCE6"/>
<rect x="40.2949" y="2.0625" width="11.1158" height="8.9375" rx="0.66" fill="#98999D"/>
<path d="M44.9933 4.46875C44.9933 5.32524 44.2912 6.0225 43.4214 6.0225C42.5517 6.0225 41.8496 5.32524 41.8496 4.46875C41.8496 3.61226 42.5517 2.915 43.4214 2.915C44.2912 2.915 44.9933 3.61226 44.9933 4.46875Z" fill="#98999D" stroke="#C9CED5" stroke-width="0.33"/>
<path d="M49.8565 4.46875C49.8565 5.32524 49.1544 6.0225 48.2847 6.0225C47.415 6.0225 46.7129 5.32524 46.7129 4.46875C46.7129 3.61226 47.415 2.915 48.2847 2.915C49.1544 2.915 49.8565 3.61226 49.8565 4.46875Z" fill="#98999D" stroke="#C9CED5" stroke-width="0.33"/>
<path d="M44.9933 8.59375C44.9933 9.45024 44.2912 10.1475 43.4214 10.1475C42.5517 10.1475 41.8496 9.45024 41.8496 8.59375C41.8496 7.73726 42.5517 7.04 43.4214 7.04C44.2912 7.04 44.9933 7.73726 44.9933 8.59375Z" fill="#98999D" stroke="#C9CED5" stroke-width="0.33"/>
<path d="M49.8565 8.59375C49.8565 9.45024 49.1544 10.1475 48.2847 10.1475C47.415 10.1475 46.7129 9.45024 46.7129 8.59375C46.7129 7.73726 47.415 7.04 48.2847 7.04C49.1544 7.04 49.8565 7.73726 49.8565 8.59375Z" fill="#98999D" stroke="#C9CED5" stroke-width="0.33"/>
<rect x="64.2637" y="14.0938" width="11" height="9.03158" rx="0.66" transform="rotate(90 64.2637 14.0938)" fill="#AAC3E1"/>
<rect x="59.748" y="19.25" width="4.16842" height="1.375" rx="0.66" fill="white"/>
<rect x="55.5791" y="26.8125" width="9.72632" height="7.5625" rx="0.66" fill="#ECF5FF"/>
<rect x="56.9688" y="44" width="8.33684" height="11" rx="0.66" fill="white"/>
<rect x="61.832" y="11.6875" width="4.16842" height="21.3125" fill="#E9F0F9"/>
<rect x="61.832" y="36.4375" width="4.16842" height="21.3125" fill="#E9F0F9"/>
<rect x="56.2734" y="27.5" width="0.694737" height="3.4375" fill="white"/>
<rect x="57.6631" y="27.5" width="0.694737" height="3.4375" fill="white"/>
<rect x="59.0527" y="27.5" width="0.694737" height="3.4375" fill="white"/>
<rect x="60.4424" y="27.5" width="0.694737" height="3.4375" fill="white"/>
<rect x="56.2734" y="31.625" width="0.694737" height="2.0625" fill="white"/>
<rect x="57.6631" y="31.625" width="0.694737" height="2.0625" fill="white"/>
<rect x="59.0527" y="31.625" width="0.694737" height="2.0625" fill="white"/>
<rect x="60.4424" y="31.625" width="0.694737" height="2.0625" fill="white"/>
</svg>
