<svg width="60" height="67" viewBox="0 0 60 67" fill="none" xmlns="http://www.w3.org/2000/svg">
<g clip-path="url(#clip0_8415_194913)">
<path d="M30.5718 44.7678H42.434C52.0117 44.7678 59.7907 52.5437 59.7907 62.1245V63.3205C59.7907 64.7564 58.6254 65.9217 57.1895 65.9217H30.5748C29.1389 65.9217 27.9736 64.7564 27.9736 63.3205V47.369C27.9736 45.9331 29.1389 44.7678 30.5748 44.7678H30.5718Z" fill="#E8E8E8"/>
<path d="M55.9905 61.3036H30.5719C29.136 61.3036 27.9707 60.1383 27.9707 58.7024V63.3237C27.9707 64.7596 29.136 65.9249 30.5719 65.9249H57.1865C58.6224 65.9249 59.7877 64.7596 59.7877 63.3237V62.1276C59.7877 61.0484 59.6832 59.9938 59.4956 58.9668C58.9237 60.3381 57.5678 61.3036 55.9874 61.3036H55.9905Z" fill="#D74374"/>
<path d="M30.6767 66.7796C36.6337 66.7796 41.4627 61.9506 41.4627 55.9936C41.4627 50.0366 36.6337 45.2075 30.6767 45.2075C24.7197 45.2075 19.8906 50.0366 19.8906 55.9936C19.8906 61.9506 24.7197 66.7796 30.6767 66.7796Z" fill="#444444"/>
<path d="M30.6765 64.8917C35.5908 64.8917 39.5747 60.9078 39.5747 55.9935C39.5747 51.0791 35.5908 47.0953 30.6765 47.0953C25.7622 47.0953 21.7783 51.0791 21.7783 55.9935C21.7783 60.9078 25.7622 64.8917 30.6765 64.8917Z" fill="#E8E8E8"/>
<path d="M51.1203 47.0953C51.1203 47.0953 54.1027 37.5299 50.5361 35.0548C46.9694 32.5797 32.918 33.0163 32.3338 24.6439C31.7496 16.2714 37.2626 12.9477 34.8397 8.38482C32.4169 3.82196 24.8685 1.15619 24.2627 4.75052C23.657 8.34485 23.2942 11.2105 23.2942 11.2105L20.2656 10.4418C20.2656 10.4418 20.7514 6.44468 21.3141 3.73894C21.8768 1.0332 24.0598 -0.943832 29.914 0.467457C35.7683 1.87875 39.7254 7.5731 37.7884 14.6787C35.8513 21.7844 34.317 27.1559 42.6341 29.2959C50.9512 31.4359 55.677 31.9617 54.9883 41.65C54.2995 51.3384 54.4809 49.6258 54.4809 49.6258L51.1203 47.0923V47.0953Z" fill="#7E7E7F"/>
<path d="M21.061 21.4208L18.7235 20.9906C18.3962 20.9303 18.082 21.1468 18.0218 21.4742L11.4107 57.389C11.3505 57.7163 11.567 58.0305 11.8943 58.0908L14.2318 58.5211C14.5591 58.5813 14.8733 58.3648 14.9336 58.0375L21.5446 22.1226C21.6049 21.7953 21.3883 21.4811 21.061 21.4208Z" fill="#D3D3D3"/>
<path d="M20.7888 11.925L19.552 11.6973C18.4748 11.4991 17.4408 12.2115 17.2425 13.2887L16.2273 18.8043C16.029 19.8815 16.7415 20.9155 17.8186 21.1138L19.0554 21.3414C20.1326 21.5397 21.1666 20.8272 21.3649 19.75L22.3801 14.2344C22.5784 13.1573 21.8659 12.1233 20.7888 11.925Z" fill="#A5355F"/>
<path d="M24.0437 10.9393L19.6681 10.1339C19.4577 10.0951 19.2557 10.2343 19.217 10.4447L17.1563 21.6392C17.1176 21.8496 17.2568 22.0516 17.4672 22.0904L21.8428 22.8958C22.0532 22.9345 22.2552 22.7953 22.2939 22.5849L24.3546 11.3904C24.3933 11.18 24.2541 10.978 24.0437 10.9393Z" fill="#D74374"/>
<path d="M14.4297 59.1852L10.7678 58.9638C2.26313 59.259 0.279943 62.6504 0.279943 62.6504C0.10161 62.8994 -0.00292969 63.2007 -0.00292969 63.5297C-0.00292969 64.3691 0.67658 65.0486 1.51597 65.0486H14.1961C15.0354 65.0486 15.715 64.3691 15.715 63.5297C15.7918 63.0532 14.4267 59.1852 14.4267 59.1852H14.4297Z" fill="#D880A2"/>
<path d="M15.2112 57.082L11.4918 56.3973C11.3599 56.373 11.2332 56.4603 11.209 56.5922L10.772 58.966C10.7477 59.0979 10.835 59.2246 10.9669 59.2488L14.6863 59.9335C14.8183 59.9578 14.9449 59.8705 14.9692 59.7386L15.4061 57.3648C15.4304 57.2329 15.3431 57.1062 15.2112 57.082Z" fill="#D74374"/>
<path d="M11.2602 65.9248C12.8089 65.9248 14.0643 64.6693 14.0643 63.1207C14.0643 61.572 12.8089 60.3165 11.2602 60.3165C9.71151 60.3165 8.45605 61.572 8.45605 63.1207C8.45605 64.6693 9.71151 65.9248 11.2602 65.9248Z" fill="#444444"/>
<path d="M11.2604 65.4328C12.5374 65.4328 13.5726 64.3976 13.5726 63.1206C13.5726 61.8437 12.5374 60.8085 11.2604 60.8085C9.98344 60.8085 8.94824 61.8437 8.94824 63.1206C8.94824 64.3976 9.98344 65.4328 11.2604 65.4328Z" fill="#E8E8E8"/>
</g>
<defs>
<clipPath id="clip0_8415_194913">
<rect width="59.7907" height="66.7795" fill="white"/>
</clipPath>
</defs>
</svg>
