<svg width="49" height="66" viewBox="0 0 49 66" fill="none" xmlns="http://www.w3.org/2000/svg">
<g clip-path="url(#clip0_8415_195043)">
<path d="M34.9127 22.9333L33.0001 21.799C32.5378 21.5249 31.9408 21.6774 31.6667 22.1396L28.4054 27.6389C28.1312 28.1011 28.2837 28.6981 28.746 28.9723L30.6586 30.1066C31.1209 30.3807 31.7179 30.2282 31.992 29.7659L35.2533 24.2667C35.5275 23.8044 35.375 23.2074 34.9127 22.9333Z" fill="#C4C4C4"/>
<path d="M20.0753 65.8348C31.1626 65.8348 40.1507 56.8467 40.1507 45.7594C40.1507 34.6721 31.1626 25.6841 20.0753 25.6841C8.98803 25.6841 0 34.6721 0 45.7594C0 56.8467 8.98803 65.8348 20.0753 65.8348Z" fill="#101010"/>
<path d="M20.0755 61.7695C28.9176 61.7695 36.0855 54.6015 36.0855 45.7594C36.0855 36.9173 28.9176 29.7494 20.0755 29.7494C11.2334 29.7494 4.06543 36.9173 4.06543 45.7594C4.06543 54.6015 11.2334 61.7695 20.0755 61.7695Z" fill="#424142"/>
<path d="M46.9365 0.470833C45.3355 -0.476166 43.2689 0.05227 42.3219 1.64804L30.9683 20.7921C30.4085 21.7338 30.7224 22.9424 31.659 23.5023L34.05 24.9202C34.9918 25.48 36.2004 25.1661 36.7602 24.2295L48.1137 5.08549C49.0607 3.48449 48.5323 1.41783 46.9365 0.470833ZM45.2204 4.47334C44.4618 4.47334 43.8444 3.85596 43.8444 3.09732C43.8444 2.33867 44.4618 1.72129 45.2204 1.72129C45.9791 1.72129 46.5964 2.33867 46.5964 3.09732C46.5964 3.85596 45.9791 4.47334 45.2204 4.47334Z" fill="#8EC431"/>
<path d="M26.7939 46.2722C26.5898 45.8432 26.5009 45.3723 26.5323 44.9014C26.5375 44.7759 26.5427 44.6451 26.5427 44.5143C26.5427 40.2135 22.9536 36.7447 18.611 36.9487C14.7079 37.1266 11.5111 40.3757 11.396 44.2841C11.2966 47.6378 13.3789 50.5207 16.3298 51.6194C17.0361 51.881 17.6797 52.2891 18.25 52.7861C19.3905 53.7698 20.934 54.2982 22.603 54.068C25.0255 53.7384 26.9718 51.7659 27.2805 49.3435C27.4217 48.2395 27.2281 47.1879 26.7939 46.2775V46.2722Z" fill="white"/>
<path d="M18.9187 47.9359C20.9125 47.9359 22.5288 46.3196 22.5288 44.3258C22.5288 42.332 20.9125 40.7157 18.9187 40.7157C16.9249 40.7157 15.3086 42.332 15.3086 44.3258C15.3086 46.3196 16.9249 47.9359 18.9187 47.9359Z" fill="#F5D538"/>
</g>
<defs>
<clipPath id="clip0_8415_195043">
<rect width="48.59" height="65.84" fill="white"/>
</clipPath>
</defs>
</svg>
