<svg width="52" height="51" viewBox="0 0 52 51" fill="none" xmlns="http://www.w3.org/2000/svg">
<circle cx="25.3904" cy="25.3904" r="25.3904" transform="matrix(1 0 -0.00278351 0.999996 1.13086 0.078125)" fill="#95C997"/>
<g clip-path="url(#clip0_8688_195695)">
<path d="M11.2217 22.7249L11.2866 41.9969H41.6365L41.6901 22.7463L11.2217 22.7249Z" fill="#D1CB5A"/>
<path d="M41.4384 24.0632C41.4158 32.1815 34.6585 38.7608 26.3459 38.7608C18.0334 38.7608 11.3127 32.1766 11.3353 24.0632L17.6223 19.6617L37.7849 19.6353L41.4384 24.0632Z" fill="#FFD7D3"/>
<path d="M23.7025 29.077C24.2716 29.077 24.7346 28.4631 24.7367 27.7058C24.7388 26.9485 24.2792 26.3347 23.7101 26.3347C23.141 26.3347 22.678 26.9485 22.6759 27.7058C22.6738 28.4631 23.1334 29.077 23.7025 29.077Z" fill="#212121"/>
<path d="M29.0472 29.077C29.6163 29.077 30.0794 28.4631 30.0815 27.7058C30.0836 26.9485 29.6239 26.3347 29.0548 26.3347C28.4858 26.3347 28.0227 26.9485 28.0206 27.7058C28.0185 28.4631 28.4781 29.077 29.0472 29.077Z" fill="#212121"/>
<path d="M26.6299 29.6171L25.3992 30.0856C25.3336 30.111 25.2753 30.1521 25.2292 30.2054C25.1831 30.2586 25.1508 30.3223 25.135 30.3909C25.1192 30.4595 25.1205 30.5309 25.1387 30.5989C25.1568 30.6668 25.1914 30.7292 25.2393 30.7806C25.487 31.0519 25.8105 31.2424 26.1678 31.3272C26.5252 31.4121 26.9 31.3875 27.2436 31.2567C27.5873 31.1258 27.8841 30.8947 28.0956 30.5933C28.3071 30.2918 28.4235 29.9339 28.4298 29.5658C28.4318 29.4955 28.4164 29.4258 28.3852 29.3628C28.354 29.2998 28.3078 29.2455 28.2506 29.2047C28.1935 29.1638 28.1273 29.1376 28.0576 29.1285C27.988 29.1193 27.9172 29.1274 27.8513 29.152L26.6299 29.6171Z" fill="#FF8E83"/>
<path d="M41.689 22.7462C41.7121 14.4337 34.7763 7.69476 26.4654 7.69476C18.1544 7.69476 11.242 14.4123 11.2189 22.7248L11.3322 24.5931H16.6457L18.0545 20.5208L19.7452 24.5931H26.0002L27.5314 20.3381L29.0602 24.5931H35.5408L37.0113 20.2163L38.7621 24.5931H41.4386L41.689 22.7462Z" fill="#D1CB5A"/>
<path d="M24.6709 25.1952L21.1709 23.6952" stroke="#75703E" stroke-linecap="round"/>
<path d="M27.8711 25.1952L31.3711 23.6952" stroke="#75703E" stroke-linecap="round"/>
</g>
<defs>
<clipPath id="clip0_8688_195695">
<rect width="30.4685" height="34.3022" fill="white" transform="matrix(1 0 -0.00278351 0.999996 11.2666 7.69519)"/>
</clipPath>
</defs>
</svg>
