<svg width="47" height="64" viewBox="0 0 47 64" fill="none" xmlns="http://www.w3.org/2000/svg">
<g clip-path="url(#clip0_8415_194954)">
<path d="M12.4301 61.8734C11.0238 61.8775 9.66708 61.3544 8.62746 60.4074C7.58785 59.4604 6.94086 58.1582 6.81413 56.7577L3.75116 23.7879H3.66079C3.0761 23.7871 2.51555 23.5547 2.10181 23.1415C1.68807 22.7284 1.45483 22.1682 1.45313 21.5835L1.45313 17.5297C1.45651 17.062 1.62575 16.6106 1.93072 16.256C2.2357 15.9014 2.65661 15.6665 3.11855 15.5931C3.25543 15.2573 3.44025 14.9431 3.66724 14.6604L10.6872 3.13144C11.0777 2.44557 11.6969 1.91887 12.4366 1.64353C12.7664 1.52802 13.1134 1.46909 13.4629 1.46924L33.574 1.46924C33.9235 1.46909 34.2705 1.52802 34.6003 1.64353C35.34 1.91887 35.9592 2.44557 36.3497 3.13144L43.3535 14.6636C43.5805 14.9464 43.7653 15.2606 43.9022 15.5963C44.3642 15.6697 44.7851 15.9046 45.0901 16.2592C45.395 16.6138 45.5643 17.0652 45.5677 17.5329V21.5803C45.566 22.165 45.3327 22.7252 44.919 23.1383C44.5052 23.5514 43.9447 23.7839 43.36 23.7847H43.2148L40.1582 56.7609C40.0304 58.1648 39.3799 59.4694 38.3356 60.4163C37.2912 61.3632 35.9293 61.8832 34.5197 61.8734H12.4301Z" fill="#FFE05F"/>
<path d="M33.5571 2.90562C33.7429 2.90575 33.9274 2.9374 34.1026 2.99922C34.522 3.1662 34.8709 3.47289 35.0902 3.86744L42.1522 15.4867C42.509 15.912 42.7115 16.4455 42.7267 17.0005H43.5787C43.647 17.0005 43.7146 17.0139 43.7776 17.04C43.8407 17.0661 43.8979 17.1044 43.9462 17.1527C43.9945 17.2009 44.0327 17.2582 44.0588 17.3212C44.085 17.3843 44.0984 17.4519 44.0984 17.5201V21.5675C44.0984 21.6665 44.0788 21.7646 44.0408 21.856C44.0028 21.9475 43.9472 22.0305 43.877 22.1004C43.8068 22.1703 43.7235 22.2256 43.6319 22.2632C43.5403 22.3008 43.4422 22.3199 43.3431 22.3195H41.8746L38.6954 56.6158C38.5982 57.6562 38.1161 58.6229 37.3437 59.3267C36.5712 60.0306 35.5639 60.4208 34.5189 60.4211H12.4294C11.3844 60.4208 10.3771 60.0306 9.60466 59.3267C8.8322 58.6229 8.35017 57.6562 8.25291 56.6158L5.07374 22.3195H3.66007C3.56104 22.3199 3.4629 22.3008 3.37129 22.2632C3.27967 22.2256 3.19639 22.1703 3.12621 22.1004C3.05604 22.0305 3.00036 21.9475 2.96236 21.856C2.92437 21.7646 2.90482 21.6665 2.90482 21.5675L2.90482 17.5298C2.90482 17.392 2.95957 17.2598 3.05702 17.1623C3.15447 17.0649 3.28664 17.0101 3.42446 17.0101H4.27654C4.29171 16.4552 4.49419 15.9217 4.85105 15.4964L11.913 3.87712C12.1323 3.48257 12.4812 3.17588 12.9006 3.0089C13.0758 2.94708 13.2603 2.91543 13.4461 2.9153L33.5571 2.9153V2.90562ZM33.5571 0.010483L13.4461 0.010483C12.9328 0.00956769 12.4232 0.0957832 11.9388 0.26546C10.8823 0.651804 9.99487 1.3965 9.43097 2.36984L2.47232 13.8277C2.33686 14.0036 2.21288 14.1879 2.10115 14.3797C1.47894 14.6413 0.947719 15.0806 0.573977 15.6426C0.200234 16.2047 0.000578374 16.8645 0 17.5395L0 21.5868C0.00151023 22.3369 0.232791 23.0684 0.662704 23.683C1.09262 24.2976 1.70051 24.7656 2.40454 25.0242L5.361 56.903C5.51482 58.6694 6.3269 60.3135 7.63619 61.5092C8.94547 62.7049 10.6563 63.3649 12.4294 63.3582H34.5189C36.292 63.3649 38.0029 62.7049 39.3122 61.5092C40.6214 60.3135 41.4335 58.6694 41.5873 56.903L44.5406 25.0436C45.2591 24.7943 45.8822 24.3276 46.3235 23.7082C46.7648 23.0888 47.0023 22.3474 47.0032 21.5868V17.5298C47.0026 16.8548 46.803 16.195 46.4292 15.633C46.0555 15.0709 45.5243 14.6316 44.9021 14.37C44.7903 14.1782 44.6663 13.9939 44.5309 13.8181L37.5722 2.36016C37.0083 1.38682 36.1209 0.642122 35.0644 0.255777C34.58 0.0861009 34.0704 -0.000114656 33.5571 0.000800669V0.010483Z" fill="white"/>
<path d="M23.716 21.2737H4.99609L8.27531 56.6254C8.37258 57.6659 8.85461 58.6326 9.62706 59.3364C10.3995 60.0402 11.4068 60.4304 12.4518 60.4307H34.5381C35.5831 60.4304 36.5904 60.0402 37.3629 59.3364C38.1353 58.6326 38.6174 57.6659 38.7146 56.6254L41.9938 21.2737L23.716 21.2737Z" fill="#FFF173"/>
<path d="M35.1148 3.86715C34.8977 3.47197 34.5496 3.16492 34.1304 2.99893C33.954 2.93735 33.7685 2.90572 33.5817 2.90533L13.4739 2.90533C13.287 2.90572 13.1016 2.93735 12.9252 2.99893C12.5063 3.16682 12.1577 3.47327 11.9375 3.86715L4.87882 15.4864C4.49716 15.9366 4.29187 16.5101 4.30108 17.1002V19.7436C4.30108 20.9798 5.15639 21.9836 6.21181 21.9836L40.8437 21.9836C41.8991 21.9836 42.7544 20.9798 42.7544 19.7436V17.1002C42.7637 16.5101 42.5584 15.9366 42.1767 15.4864L35.1148 3.86715Z" fill="#EFF2F7"/>
<path d="M3.44924 17.0097L43.6036 17.0097C43.6718 17.0097 43.7394 17.0232 43.8024 17.0493C43.8655 17.0754 43.9227 17.1137 43.971 17.1619C44.0192 17.2102 44.0575 17.2675 44.0836 17.3305C44.1097 17.3936 44.1232 17.4611 44.1232 17.5294V21.5768C44.1232 21.7762 44.044 21.9675 43.9029 22.1085C43.7619 22.2496 43.5706 22.3288 43.3712 22.3288L3.67195 22.3288C3.4725 22.3288 3.28122 22.2496 3.14018 22.1085C2.99915 21.9675 2.91992 21.7762 2.91992 21.5768L2.91992 17.5294C2.91991 17.4603 2.93366 17.3919 2.96038 17.3283C2.9871 17.2646 3.02624 17.2068 3.07553 17.1585C3.12481 17.1101 3.18324 17.072 3.24741 17.0465C3.31158 17.0209 3.38019 17.0084 3.44924 17.0097Z" fill="#FFE05F"/>
<path d="M23.5287 2.90539L13.8008 2.90539L15.1176 13.4596C15.1299 13.661 15.2154 13.851 15.3581 13.9937C15.5008 14.1364 15.6908 14.2219 15.8923 14.2342L31.1619 14.2342C31.3637 14.222 31.5541 14.1366 31.6973 13.994C31.8406 13.8513 31.9268 13.6613 31.9398 13.4596L33.2566 2.90216L23.5287 2.90539Z" fill="#FFE05F"/>
</g>
<defs>
<clipPath id="clip0_8415_194954">
<rect width="47" height="63.3348" fill="white"/>
</clipPath>
</defs>
</svg>
