<svg width="79" height="71" viewBox="0 0 79 71" fill="none" xmlns="http://www.w3.org/2000/svg">
<g clip-path="url(#clip0_8415_194864)" filter="url(#filter0_d_8415_194864)">
<path d="M36.072 61.6172C30.9613 61.6194 25.9311 60.367 21.4385 57.9739C16.9459 55.5809 13.1335 52.123 10.3478 47.9146C7.56209 43.7062 5.89137 38.8807 5.48751 33.8767C5.08365 28.8728 5.95946 23.8491 8.03533 19.2621C10.1112 14.6752 13.3213 10.6706 17.3739 7.61222C21.4265 4.55385 26.193 2.53873 31.2403 1.75001C36.2875 0.961286 41.4554 1.42398 46.2743 3.09603C51.0931 4.76809 55.4101 7.59648 58.8329 11.3241C59.9103 11.0001 61.0309 10.8363 62.1577 10.8379C64.7865 10.8345 67.3361 11.7213 69.3768 13.349C71.4175 14.9766 72.8244 17.2455 73.3605 19.7732C73.8966 22.3009 73.529 24.9328 72.3197 27.2253C71.1104 29.5179 69.1333 31.3308 66.7218 32.3586C66.4846 40.1909 63.1527 47.625 57.4317 53.0863C51.7107 58.5476 44.05 61.6072 36.072 61.6172Z" fill="#FFDD92"/>
<path d="M36.0675 2.75863C40.3199 2.75508 44.5217 3.66392 48.3792 5.42159C52.2366 7.17926 55.6566 9.74331 58.4 12.9345C59.6453 12.4392 60.9793 12.1947 62.3226 12.2157C63.666 12.2366 64.9914 12.5225 66.2201 13.0563C67.4488 13.5901 68.5557 14.361 69.4751 15.3232C70.3945 16.2855 71.1077 17.4193 71.5722 18.6575C72.0367 19.8957 72.2432 21.213 72.1793 22.5311C72.1154 23.8492 71.7824 25.1412 71.2002 26.3305C70.618 27.5197 69.7984 28.5819 68.7901 29.4539C67.7817 30.326 66.6052 30.9901 65.3305 31.4069V31.5C65.3305 37.1845 63.6142 42.7414 60.3988 47.4679C57.1833 52.1944 52.613 55.8782 47.2659 58.0536C41.9188 60.229 36.035 60.7981 30.3586 59.6891C24.6821 58.5801 19.4679 55.8428 15.3754 51.8232C11.2829 47.8037 8.49591 42.6824 7.36679 37.1072C6.23768 31.5319 6.81718 25.753 9.03202 20.5012C11.2469 15.2494 14.9976 10.7606 19.8098 7.60242C24.6221 4.44427 30.2798 2.75863 36.0675 2.75863ZM36.0675 4.46529e-06C29.8001 5.8582e-05 23.6701 1.80369 18.435 5.188C13.1999 8.57232 9.08909 13.389 6.61057 19.0428C4.13205 24.6967 3.39445 30.9399 4.48893 37.0009C5.5834 43.0619 8.46198 48.6752 12.7689 53.147C17.0759 57.6189 22.6225 60.7533 28.7233 62.1629C34.8241 63.5726 41.2117 63.1957 47.0968 61.0788C52.9819 58.962 58.1066 55.198 61.8375 50.2519C65.5684 45.3058 67.7421 39.3944 68.09 33.2483C70.8577 31.8302 73.0046 29.4703 74.129 26.61C75.2534 23.7497 75.2784 20.5851 74.1991 17.7081C73.1199 14.8311 71.0104 12.4389 68.2653 10.9789C65.5203 9.51894 62.3276 9.09125 59.2848 9.77587C56.2922 6.68501 52.6906 4.22443 48.6993 2.54382C44.7079 0.86322 40.4102 -0.00226848 36.0675 4.46529e-06Z" fill="white"/>
<path d="M36.0716 60.2414C52.2331 60.2414 65.3345 47.3734 65.3345 31.5C65.3345 15.6266 52.2331 2.75861 36.0716 2.75861C19.9101 2.75861 6.80859 15.6266 6.80859 31.5C6.80859 47.3734 19.9101 60.2414 36.0716 60.2414Z" fill="#EFF2F7"/>
<path d="M36.0716 52.4655C47.8606 52.4655 57.4176 43.0789 57.4176 31.5C57.4176 19.9211 47.8606 10.5345 36.0716 10.5345C24.2825 10.5345 14.7256 19.9211 14.7256 31.5C14.7256 43.0789 24.2825 52.4655 36.0716 52.4655Z" fill="white"/>
<path d="M46.4949 21.6103C45.3242 22.5152 44.3735 23.6649 43.712 24.9759C43.0504 26.2869 42.6945 27.7261 42.6703 29.1891C42.646 30.6521 42.954 32.102 43.5717 33.4334C44.1895 34.7649 45.1016 35.9443 46.2416 36.8862C47.3817 37.828 48.7211 38.5085 50.1624 38.8782C51.6038 39.2479 53.111 39.2975 54.5743 39.0234C56.0377 38.7493 57.4205 38.1584 58.6221 37.2936C59.8238 36.4289 60.8142 35.312 61.5214 34.0241C61.8419 33.4306 62.2851 32.9094 62.8226 32.4937C63.36 32.0781 63.9799 31.7772 64.6425 31.6103C66.2613 31.2055 67.7514 30.4097 68.9776 29.2955C70.2038 28.1813 71.1271 26.7838 71.6636 25.2301C72.2002 23.6763 72.3331 22.0156 72.0501 20.3986C71.7672 18.7816 71.0774 17.2597 70.0435 15.971C69.0095 14.6824 67.6642 13.6679 66.1296 13.0196C64.5951 12.3714 62.92 12.11 61.2564 12.2592C59.5929 12.4083 57.9936 12.9633 56.604 13.8738C55.2143 14.7842 54.0782 16.0212 53.2989 17.4724C52.9844 18.0522 52.5498 18.5609 52.0232 18.9659C51.4965 19.3709 50.8895 19.6633 50.241 19.8241C48.878 20.1534 47.6013 20.7621 46.4949 21.6103Z" fill="#FFC639"/>
<path d="M60.8088 17.5345C61.5786 17.5345 62.2027 16.9216 62.2027 16.1655C62.2027 15.4095 61.5786 14.7966 60.8088 14.7966C60.0391 14.7966 59.415 15.4095 59.415 16.1655C59.415 16.9216 60.0391 17.5345 60.8088 17.5345Z" fill="#FFDD92"/>
<path d="M59.4153 21.5345C60.1851 21.5345 60.8091 20.9216 60.8091 20.1655C60.8091 19.4095 60.1851 18.7966 59.4153 18.7966C58.6455 18.7966 58.0215 19.4095 58.0215 20.1655C58.0215 20.9216 58.6455 21.5345 59.4153 21.5345Z" fill="#FFDD92"/>
<path d="M66.0188 19.6276C66.7886 19.6276 67.4126 19.0147 67.4126 18.2586C67.4126 17.5026 66.7886 16.8896 66.0188 16.8896C65.249 16.8896 64.625 17.5026 64.625 18.2586C64.625 19.0147 65.249 19.6276 66.0188 19.6276Z" fill="#FFDD92"/>
<path d="M53.9983 31.5C54.7681 31.5 55.3921 30.8871 55.3921 30.131C55.3921 29.375 54.7681 28.7621 53.9983 28.7621C53.2285 28.7621 52.6045 29.375 52.6045 30.131C52.6045 30.8871 53.2285 31.5 53.9983 31.5Z" fill="#FFDD92"/>
<path d="M48.3489 34.2863C47.6461 34.0402 46.8916 33.9714 46.1547 34.0863C46.1664 33.3911 45.956 32.7098 45.5529 32.1382C45.1499 31.5667 44.5745 31.1336 43.9077 30.9C43.5693 30.7815 43.2137 30.7174 42.8545 30.7104C43.3194 30.1303 43.5409 29.3975 43.4737 28.6622C43.4064 27.9269 43.0555 27.2447 42.4928 26.7552C43.0818 26.7345 43.651 26.5407 44.1267 26.1989C44.6023 25.8571 44.9627 25.3831 45.1611 24.838C45.3875 24.2159 45.3875 23.5359 45.1611 22.9138C45.2878 22.8176 45.4053 22.7103 45.5122 22.5931C45.5368 22.569 45.5578 22.5414 45.5789 22.5173C46.026 22.8236 46.5534 22.997 47.0982 23.0169C47.6429 23.0368 48.182 22.9023 48.651 22.6295C49.12 22.3566 49.4992 21.957 49.7433 21.4783C49.9874 20.9996 50.0861 20.4619 50.0275 19.9296C49.969 19.3973 49.7558 18.8928 49.4132 18.4763C49.0707 18.0598 48.6134 17.7489 48.0959 17.5807C47.5783 17.4125 47.0225 17.3942 46.4946 17.5279C45.9667 17.6615 45.4892 17.9416 45.119 18.3345L45.0523 18.4138C44.5703 18.0827 43.9954 17.907 43.4072 17.9109C42.8191 17.9148 42.2467 18.0982 41.7693 18.4356C41.2919 18.7731 40.9331 19.2479 40.7426 19.7945C40.5521 20.341 40.5392 20.9322 40.7058 21.4863C40.1931 21.8289 39.8046 22.3228 39.5964 22.8966C39.5527 23.0206 39.5175 23.1473 39.4911 23.2759C38.7726 23.0931 38.0103 23.1838 37.3571 23.5297C36.7038 23.8757 36.2078 24.4513 35.9684 25.1413C35.729 25.8313 35.764 26.5847 36.0664 27.2504C36.3687 27.9161 36.9161 28.445 37.5987 28.7311C37.5869 28.922 37.5928 29.1136 37.6163 29.3035C36.8243 29.2429 36.0359 29.4581 35.3893 29.9114C34.7428 30.3647 34.2794 31.0271 34.0804 31.7824C33.8815 32.5378 33.9596 33.3378 34.3013 34.0422C34.6429 34.7465 35.2261 35.3103 35.9486 35.6345C35.7616 35.9145 35.6096 36.2155 35.4957 36.5311C35.1453 37.4992 35.1517 38.5575 35.514 39.5214C35.8762 40.4854 36.5713 41.294 37.4781 41.8064C38.3849 42.3188 39.446 42.5025 40.4765 42.3256C41.5071 42.1486 42.4418 41.6222 43.1178 40.838C43.5078 41.4193 44.033 41.9012 44.65 42.2439C45.267 42.5866 45.9581 42.7802 46.6664 42.8088C47.3746 42.8374 48.0796 42.7001 48.7232 42.4083C49.3667 42.1165 49.9304 41.6785 50.3676 41.1305C50.8048 40.5825 51.1031 39.9403 51.2378 39.2568C51.3724 38.5733 51.3396 37.8681 51.1421 37.1995C50.9445 36.5309 50.5879 35.918 50.1016 35.4115C49.6154 34.9049 49.0134 34.5192 48.3454 34.2863H48.3489Z" fill="#E3ECFF"/>
</g>
<defs>
<filter id="filter0_d_8415_194864" x="0" y="0" width="79" height="71" filterUnits="userSpaceOnUse" color-interpolation-filters="sRGB">
<feFlood flood-opacity="0" result="BackgroundImageFix"/>
<feColorMatrix in="SourceAlpha" type="matrix" values="0 0 0 0 0 0 0 0 0 0 0 0 0 0 0 0 0 0 127 0" result="hardAlpha"/>
<feOffset dy="4"/>
<feGaussianBlur stdDeviation="2"/>
<feComposite in2="hardAlpha" operator="out"/>
<feColorMatrix type="matrix" values="0 0 0 0 0 0 0 0 0 0 0 0 0 0 0 0 0 0 0.25 0"/>
<feBlend mode="normal" in2="BackgroundImageFix" result="effect1_dropShadow_8415_194864"/>
<feBlend mode="normal" in="SourceGraphic" in2="effect1_dropShadow_8415_194864" result="shape"/>
</filter>
<clipPath id="clip0_8415_194864">
<rect width="71" height="63" fill="white" transform="translate(4)"/>
</clipPath>
</defs>
</svg>
