<svg width="73" height="62" viewBox="0 0 73 62" fill="none" xmlns="http://www.w3.org/2000/svg">
<g clip-path="url(#clip0_8415_194977)">
<path d="M73.1992 0H0V61.8891H73.1992V0Z" fill="#E9E6D9"/>
<path d="M70.3433 1.43628H13.6339C12.998 1.43628 12.4824 1.95183 12.4824 2.5878V59.2972C12.4824 59.9331 12.998 60.4487 13.6339 60.4487H70.3433C70.9793 60.4487 71.4948 59.9331 71.4948 59.2972V2.5878C71.4948 1.95183 70.9793 1.43628 70.3433 1.43628Z" fill="#F7F7F7"/>
<path d="M71.4982 1.43628H1.69922V60.4487H71.4982V1.43628Z" fill="#F2F9FD"/>
<path d="M55 20H18V60H55V20Z" fill="white"/>
<path d="M35.6545 1.43628H1.69922V60.4487H35.6545V1.43628Z" fill="#8D8178"/>
<path d="M33.5114 3.4043H3.83984V58.4848H33.5114V3.4043Z" fill="#C4C0BA"/>
<path d="M31.3968 3.4043H3.83984V58.4848H31.3968V3.4043Z" fill="#E5EEF3"/>
<path d="M31.3975 20.1955H17.6211V58.4847H31.3975V20.1955Z" fill="#F2F2F2"/>
<path d="M46.5624 23.7715H39V31.3338H46.5624V23.7715Z" fill="#F2F2F2"/>
<path d="M46.5624 33.3339H39V40.8962H46.5624V33.3339Z" fill="#F2F2F2"/>
<path d="M46.5624 42.8962H39V50.4586H46.5624V42.8962Z" fill="#F2F2F2"/>
<path d="M46.5624 52.4586H39V59.3719H46.5624V52.4586Z" fill="#F2F2F2"/>
<path d="M31.398 23.7715H24.5098V31.3338H31.398V23.7715Z" fill="#E2E2E1"/>
<path d="M31.398 33.6914H24.5098V41.2538H31.398V33.6914Z" fill="#E2E2E1"/>
<path d="M31.398 43.6154H24.5098V51.1778H31.398V43.6154Z" fill="#E2E2E1"/>
<path d="M31.398 53.5394H24.5098V58.514H31.398V53.5394Z" fill="#E2E2E1"/>
</g>
<defs>
<clipPath id="clip0_8415_194977">
<rect width="73" height="61.7692" fill="white"/>
</clipPath>
</defs>
</svg>
