<svg width="54" height="51" viewBox="0 0 54 51" fill="none" xmlns="http://www.w3.org/2000/svg">
<g clip-path="url(#clip0_8415_194826)">
<path d="M14.7254 34.0738H0V35.825H14.7254V34.0738Z" fill="#B4C3D0"/>
<path d="M16.2924 36.8956L8.92969 49.6482L10.4463 50.5238L17.809 37.7712L16.2924 36.8956Z" fill="#B4C3D0"/>
<path d="M28.5819 49.9709C42.2634 49.9709 53.3543 38.8799 53.3543 25.1985C53.3543 11.5171 42.2634 0.426147 28.5819 0.426147C14.9005 0.426147 3.80957 11.5171 3.80957 25.1985C3.80957 38.8799 14.9005 49.9709 28.5819 49.9709Z" fill="#F5F6F7" stroke="#C7CDD4" stroke-width="0.852163" stroke-miterlimit="10"/>
<path d="M5.28418 17.2308H52.0977" stroke="#C7CDD4" stroke-width="0.319561" stroke-miterlimit="10"/>
<path d="M28.6879 15.4753C32.333 15.4753 35.2879 12.5204 35.2879 8.87533C35.2879 5.23025 32.333 2.27533 28.6879 2.27533C25.0428 2.27533 22.0879 5.23025 22.0879 8.87533C22.0879 12.5204 25.0428 15.4753 28.6879 15.4753Z" fill="#B4C3D0"/>
<path d="M28.5821 14.8021C31.966 14.8021 34.7092 12.0589 34.7092 8.67502C34.7092 5.29115 31.966 2.54797 28.5821 2.54797C25.1983 2.54797 22.4551 5.29115 22.4551 8.67502C22.4551 12.0589 25.1983 14.8021 28.5821 14.8021Z" fill="white"/>
<path d="M34.7091 8.67502C34.7091 5.29194 31.9651 2.54797 28.582 2.54797V8.67502H34.7091Z" fill="#F2F9FD"/>
<path d="M22.459 8.67505C22.459 12.0581 25.2029 14.8021 28.586 14.8021V8.67505H22.459Z" fill="#F2F9FD"/>
<path d="M24.8895 44.2155H24.7238C24.7017 44.1271 24.634 44.0691 24.5097 44.0691C24.3785 44.0691 24.2859 44.1395 24.2859 44.2279C24.2859 44.2983 24.3425 44.3467 24.4669 44.3771L24.6257 44.4157C24.8149 44.4613 24.9075 44.5552 24.9075 44.703C24.9075 44.8867 24.7583 45.0221 24.4917 45.0221C24.2541 45.0221 24.1119 44.9157 24.0843 44.7224H24.2597C24.279 44.826 24.355 44.8757 24.489 44.8757C24.6395 44.8757 24.7348 44.8122 24.7348 44.7127C24.7348 44.6381 24.6809 44.5884 24.5608 44.5608L24.4006 44.5235C24.2155 44.4807 24.1174 44.3798 24.1174 44.2376C24.1174 44.0566 24.2762 43.9254 24.5097 43.9254C24.7293 43.9254 24.8674 44.0428 24.8895 44.2155ZM25.5295 43.9254C25.6676 43.9254 25.9287 43.9669 25.9287 44.3011V45H25.7615V44.8564H25.7532C25.7187 44.9268 25.622 45.0249 25.4383 45.0249C25.2367 45.0249 25.0764 44.9061 25.0764 44.6989C25.0764 44.4558 25.2905 44.4006 25.4742 44.3867C25.5433 44.3819 25.7146 44.3722 25.7615 44.3709V44.2845C25.7615 44.1506 25.6814 44.0718 25.5212 44.0718C25.3872 44.0718 25.3071 44.134 25.2822 44.2155H25.1082C25.1289 44.0442 25.2947 43.9254 25.5295 43.9254ZM25.4659 44.8757C25.6566 44.8757 25.7615 44.7486 25.7615 44.616V44.509C25.7118 44.5117 25.5454 44.5242 25.4949 44.5276C25.3416 44.5373 25.2449 44.5912 25.2449 44.7072C25.2449 44.8191 25.3375 44.8757 25.4659 44.8757ZM26.365 45H26.1965V43.9392H26.3595V44.1064H26.3733C26.4175 43.9917 26.5197 43.9254 26.6578 43.9254C26.7973 43.9254 26.8912 43.9917 26.9423 44.1064H26.9534C27.0073 43.9959 27.1191 43.9254 27.2711 43.9254C27.4603 43.9254 27.5956 44.0414 27.5956 44.2901V45H27.4271V44.2928C27.4271 44.1367 27.3291 44.076 27.2131 44.076C27.0653 44.076 26.981 44.1754 26.981 44.3108V45H26.8111V44.2762C26.8111 44.1561 26.7255 44.076 26.6026 44.076C26.4769 44.076 26.365 44.1837 26.365 44.3384V45ZM28.62 44.2155H28.4542C28.4321 44.1271 28.3644 44.0691 28.2401 44.0691C28.1089 44.0691 28.0164 44.1395 28.0164 44.2279C28.0164 44.2983 28.073 44.3467 28.1973 44.3771L28.3562 44.4157C28.5454 44.4613 28.6379 44.5552 28.6379 44.703C28.6379 44.8867 28.4888 45.0221 28.2222 45.0221C27.9846 45.0221 27.8423 44.9157 27.8147 44.7224H27.9901C28.0095 44.826 28.0854 44.8757 28.2194 44.8757C28.37 44.8757 28.4653 44.8122 28.4653 44.7127C28.4653 44.6381 28.4114 44.5884 28.2912 44.5608L28.131 44.5235C27.9459 44.4807 27.8479 44.3798 27.8479 44.2376C27.8479 44.0566 28.0067 43.9254 28.2401 43.9254C28.4598 43.9254 28.5979 44.0428 28.62 44.2155ZM29.5265 44.5649V43.9392H29.6937V45H29.5265V44.8204H29.5155C29.4658 44.9282 29.3608 45.0138 29.2006 45.0138C29.0003 45.0138 28.8566 44.8826 28.8566 44.6133V43.9392H29.0251V44.6008C29.0251 44.7541 29.1204 44.8522 29.2558 44.8522C29.376 44.8522 29.5265 44.7624 29.5265 44.5649ZM30.1306 44.3633V45H29.9621V43.9392H30.1251V44.1064H30.1389C30.1886 43.9972 30.2881 43.9254 30.4483 43.9254C30.6638 43.9254 30.8074 44.0566 30.8074 44.326V45H30.6389V44.3384C30.6389 44.174 30.5491 44.076 30.3986 44.076C30.2439 44.076 30.1306 44.1796 30.1306 44.3633ZM31.5063 45.4199C31.2494 45.4199 31.0754 45.308 31.056 45.1105H31.2328C31.2549 45.2196 31.3558 45.2735 31.5063 45.2735C31.6873 45.2735 31.7991 45.1948 31.7991 45.0193V44.8039H31.7853C31.7494 44.8633 31.6817 44.9834 31.4759 44.9834C31.219 44.9834 31.0257 44.7887 31.0257 44.4558C31.0257 44.1285 31.2121 43.9254 31.4787 43.9254C31.6845 43.9254 31.7508 44.0511 31.7881 44.1077H31.8033V43.9392H31.9663V45.029C31.9663 45.3025 31.7646 45.4199 31.5063 45.4199ZM31.5008 44.8343C31.6942 44.8343 31.8019 44.6948 31.8019 44.4613C31.8019 44.2334 31.6969 44.076 31.5008 44.076C31.2964 44.076 31.1955 44.2472 31.1955 44.4613C31.1955 44.6809 31.2991 44.8343 31.5008 44.8343Z" fill="#6D6D6D"/>
</g>
<defs>
<clipPath id="clip0_8415_194826">
<rect width="53.78" height="50.5247" fill="white"/>
</clipPath>
</defs>
</svg>
