<svg width="60" height="68" viewBox="0 0 60 68" fill="none" xmlns="http://www.w3.org/2000/svg">
<g clip-path="url(#clip0_8415_194836)">
<path d="M30.7807 45.1184H42.6429C52.2206 45.1184 59.9997 52.8943 59.9997 62.4751V63.6712C59.9997 65.1071 58.8343 66.2724 57.3985 66.2724H30.7838C29.3479 66.2724 28.1826 65.1071 28.1826 63.6712V47.7196C28.1826 46.2837 29.3479 45.1184 30.7838 45.1184H30.7807Z" fill="#E8E8E8"/>
<path d="M56.1995 61.6542H30.7809C29.345 61.6542 28.1797 60.4889 28.1797 59.053V63.6743C28.1797 65.1102 29.345 66.2755 30.7809 66.2755H57.3955C58.8314 66.2755 59.9967 65.1102 59.9967 63.6743V62.4783C59.9967 61.399 59.8922 60.3444 59.7046 59.3175C59.1327 60.6888 57.7768 61.6542 56.1964 61.6542H56.1995Z" fill="#D74374"/>
<path d="M30.8857 67.1303C36.8426 67.1303 41.6717 62.3012 41.6717 56.3442C41.6717 50.3873 36.8426 45.5582 30.8857 45.5582C24.9287 45.5582 20.0996 50.3873 20.0996 56.3442C20.0996 62.3012 24.9287 67.1303 30.8857 67.1303Z" fill="#444444"/>
<path d="M30.8855 65.2423C35.7998 65.2423 39.7837 61.2585 39.7837 56.3441C39.7837 51.4298 35.7998 47.4459 30.8855 47.4459C25.9712 47.4459 21.9873 51.4298 21.9873 56.3441C21.9873 61.2585 25.9712 65.2423 30.8855 65.2423Z" fill="#E8E8E8"/>
<path d="M51.3293 47.446C51.3293 47.446 54.3117 37.8806 50.7451 35.4054C47.1784 32.9303 33.127 33.3669 32.5428 24.9945C31.9586 16.6221 37.4716 13.2983 35.0487 8.73547C32.6258 4.17261 25.0774 1.50684 24.4717 5.10117C23.866 8.6955 23.5032 11.5611 23.5032 11.5611L20.4746 10.7924C20.4746 10.7924 20.9604 6.79533 21.5231 4.08959C22.0858 1.38385 24.2688 -0.593185 30.123 0.818104C35.9773 2.22939 39.9344 7.92375 37.9973 15.0294C36.0603 22.135 34.526 27.5065 42.8431 29.6465C51.1602 31.7865 55.886 32.3123 55.1972 42.0007C54.5085 51.6891 54.6899 49.9765 54.6899 49.9765L51.3293 47.4429V47.446Z" fill="#7E7E7F"/>
<path d="M21.27 21.7715L18.9325 21.3412C18.6052 21.281 18.291 21.4975 18.2307 21.8248L11.6197 57.7397C11.5594 58.067 11.776 58.3812 12.1033 58.4414L14.4408 58.8717C14.7681 58.932 15.0823 58.7155 15.1425 58.3881L21.7536 22.4733C21.8138 22.1459 21.5973 21.8317 21.27 21.7715Z" fill="#D3D3D3"/>
<path d="M20.9977 12.2756L19.761 12.048C18.6838 11.8497 17.6498 12.5622 17.4515 13.6394L16.4362 19.155C16.238 20.2322 16.9504 21.2661 18.0276 21.4644L19.2644 21.6921C20.3416 21.8904 21.3756 21.1779 21.5738 20.1007L22.5891 14.5851C22.7874 13.5079 22.0749 12.4739 20.9977 12.2756Z" fill="#A5355F"/>
<path d="M24.2527 11.2899L19.8771 10.4845C19.6667 10.4458 19.4647 10.585 19.426 10.7954L17.3653 21.9899C17.3266 22.2003 17.4658 22.4023 17.6762 22.441L22.0518 23.2464C22.2622 23.2852 22.4642 23.146 22.5029 22.9356L24.5636 11.7411C24.6023 11.5307 24.4631 11.3287 24.2527 11.2899Z" fill="#D74374"/>
<path d="M14.6387 59.5358L10.9767 59.3145C2.47211 59.6096 0.488927 63.001 0.488927 63.001C0.310595 63.2501 0.206055 63.5514 0.206055 63.8804C0.206055 64.7198 0.885564 65.3993 1.72496 65.3993H14.405C15.2444 65.3993 15.9239 64.7198 15.9239 63.8804C16.0008 63.4038 14.6356 59.5358 14.6356 59.5358H14.6387Z" fill="#D880A2"/>
<path d="M15.4202 57.4326L11.7008 56.748C11.5689 56.7237 11.4422 56.8109 11.4179 56.9429L10.981 59.3166C10.9567 59.4486 11.044 59.5752 11.1759 59.5995L14.8953 60.2841C15.0272 60.3084 15.1539 60.2212 15.1782 60.0892L15.6151 57.7155C15.6394 57.5835 15.5521 57.4569 15.4202 57.4326Z" fill="#D74374"/>
<path d="M11.4692 66.2754C13.0178 66.2754 14.2733 65.02 14.2733 63.4713C14.2733 61.9226 13.0178 60.6672 11.4692 60.6672C9.92049 60.6672 8.66504 61.9226 8.66504 63.4713C8.66504 65.02 9.92049 66.2754 11.4692 66.2754Z" fill="#444444"/>
<path d="M11.4694 65.7835C12.7464 65.7835 13.7816 64.7483 13.7816 63.4713C13.7816 62.1943 12.7464 61.1591 11.4694 61.1591C10.1924 61.1591 9.15723 62.1943 9.15723 63.4713C9.15723 64.7483 10.1924 65.7835 11.4694 65.7835Z" fill="#E8E8E8"/>
</g>
<defs>
<clipPath id="clip0_8415_194836">
<rect width="59.7907" height="66.7795" fill="white" transform="translate(0.208984 0.350647)"/>
</clipPath>
</defs>
</svg>
