<svg width="52" height="63" viewBox="0 0 52 63" fill="none" xmlns="http://www.w3.org/2000/svg">
<rect width="51.8704" height="59.1854" rx="3.32502" fill="#EFF2F7"/>
<path d="M0 3.32502C0 1.48866 1.48866 0 3.32502 0H48.5454C50.3817 0 51.8704 1.48866 51.8704 3.32502V8.97757H0V3.32502Z" fill="#D6D8DC"/>
<g filter="url(#filter0_d_8415_195059)">
<circle cx="25.4354" cy="33.583" r="21.2802" fill="white"/>
</g>
<circle cx="25.4365" cy="33.5829" r="16.0195" fill="#E1EDFF"/>
<path d="M6.25827 5.70075C6.96021 5.70075 7.52924 5.13172 7.52924 4.42978C7.52924 3.72785 6.96021 3.15881 6.25827 3.15881C5.55634 3.15881 4.9873 3.72785 4.9873 4.42978C4.9873 5.13172 5.55634 5.70075 6.25827 5.70075Z" fill="#FF9022"/>
<path d="M10.0952 5.70075C10.7971 5.70075 11.3662 5.13172 11.3662 4.42978C11.3662 3.72785 10.7971 3.15881 10.0952 3.15881C9.39325 3.15881 8.82422 3.72785 8.82422 4.42978C8.82422 5.13172 9.39325 5.70075 10.0952 5.70075Z" fill="#FF9022"/>
<path d="M13.8559 5.70075C14.5579 5.70075 15.1269 5.13172 15.1269 4.42978C15.1269 3.72785 14.5579 3.15881 13.8559 3.15881C13.154 3.15881 12.585 3.72785 12.585 4.42978C12.585 5.13172 13.154 5.70075 13.8559 5.70075Z" fill="#FF9022"/>
<path d="M25.6681 6.54934C26.8617 6.54934 27.8294 5.58171 27.8294 4.38807C27.8294 3.19444 26.8617 2.22681 25.6681 2.22681C24.4745 2.22681 23.5068 3.19444 23.5068 4.38807C23.5068 5.58171 24.4745 6.54934 25.6681 6.54934Z" fill="white"/>
<path d="M47.346 2.99249L37.1013 2.99249C36.8113 2.99249 36.5762 3.2276 36.5762 3.51761V5.26257C36.5762 5.55259 36.8113 5.78769 37.1013 5.78769H47.346C47.636 5.78769 47.8711 5.55259 47.8711 5.26257V3.51761C47.8711 3.2276 47.636 2.99249 47.346 2.99249Z" fill="#97999B"/>
<path d="M2.99219 59.1854H48.7113V61.3259C48.7113 61.4596 48.6898 61.592 48.648 61.7156C48.6062 61.8391 48.545 61.9514 48.4679 62.0459C48.3907 62.1405 48.2991 62.2155 48.1982 62.2667C48.0974 62.3179 47.9893 62.3442 47.8802 62.3442H3.82652C3.71739 62.3442 3.60932 62.3179 3.50849 62.2667C3.40765 62.2155 3.31604 62.1405 3.23886 62.0459C3.16169 61.9514 3.10047 61.8391 3.05871 61.7156C3.01694 61.592 2.99545 61.4596 2.99545 61.3259L2.99545 59.1854H2.99219Z" fill="#D6D8DC"/>
<defs>
<filter id="filter0_d_8415_195059" x="1.56175" y="10.529" width="47.7476" height="47.7473" filterUnits="userSpaceOnUse" color-interpolation-filters="sRGB">
<feFlood flood-opacity="0" result="BackgroundImageFix"/>
<feColorMatrix in="SourceAlpha" type="matrix" values="0 0 0 0 0 0 0 0 0 0 0 0 0 0 0 0 0 0 127 0" result="hardAlpha"/>
<feOffset dy="0.819754"/>
<feGaussianBlur stdDeviation="1.29676"/>
<feComposite in2="hardAlpha" operator="out"/>
<feColorMatrix type="matrix" values="0 0 0 0 0.025 0 0 0 0 0.025 0 0 0 0 0.025 0 0 0 0.15 0"/>
<feBlend mode="normal" in2="BackgroundImageFix" result="effect1_dropShadow_8415_195059"/>
<feBlend mode="normal" in="SourceGraphic" in2="effect1_dropShadow_8415_195059" result="shape"/>
</filter>
</defs>
</svg>
