<svg width="40" height="46" viewBox="0 0 40 46" fill="none" xmlns="http://www.w3.org/2000/svg">
<path d="M5.34203 39.6776C5.6795 38.5634 5.32597 37.4702 4.55241 37.2359C3.77885 37.0017 2.87818 37.715 2.54072 38.8292C2.20326 39.9434 2.55678 41.0366 3.33034 41.2709C4.1039 41.5052 5.00457 40.7919 5.34203 39.6776Z" fill="#43437D"/>
<path d="M3.44359 43.5471C3.78106 42.4329 3.42753 41.3397 2.65397 41.1054C1.88041 40.8711 0.979747 41.5844 0.642283 42.6987C0.304819 43.8129 0.658345 44.9061 1.43191 45.1403C2.20547 45.3746 3.10613 44.6613 3.44359 43.5471Z" fill="#43437D"/>
<path d="M20.2353 9.4921C22.8074 9.4921 24.8926 7.407 24.8926 4.83489C24.8926 2.26278 22.8074 0.177673 20.2353 0.177673C17.6632 0.177673 15.5781 2.26278 15.5781 4.83489C15.5781 7.407 17.6632 9.4921 20.2353 9.4921Z" fill="#43437D"/>
<path d="M20.0186 10.1687C22.471 10.1687 24.4591 8.67768 24.4591 6.83836C24.4591 4.99905 22.471 3.508 20.0186 3.508C17.5662 3.508 15.5781 4.99905 15.5781 6.83836C15.5781 8.67768 17.5662 10.1687 20.0186 10.1687Z" fill="#A82A2A"/>
<path d="M39.9657 26.3313C39.9657 37.0951 31.0289 45.8224 20.0053 45.8224C8.98169 45.8224 0.0449219 37.0908 0.0449219 26.3313L8.49491 23.4193L39.9657 26.3313Z" fill="#FFDEDB"/>
<path d="M19.9869 34.5653H18.2405C18.1471 34.5655 18.0552 34.5886 17.9728 34.6327C17.8904 34.6768 17.8201 34.7405 17.7682 34.8181C17.7162 34.8957 17.6841 34.985 17.6747 35.0779C17.6654 35.1709 17.679 35.2647 17.7145 35.3511C17.8947 35.8043 18.2068 36.193 18.6104 36.4668C19.0139 36.7406 19.4904 36.887 19.9781 36.887C20.4658 36.887 20.9423 36.7406 21.3459 36.4668C21.7495 36.193 22.0616 35.8043 22.2418 35.3511C22.2777 35.2649 22.2918 35.1711 22.2828 35.0781C22.2738 34.9851 22.2419 34.8958 22.1901 34.818C22.1383 34.7403 22.0681 34.6765 21.9857 34.6325C21.9033 34.5884 21.8113 34.5653 21.7179 34.5653H19.9869Z" fill="#FF8E83"/>
<path d="M0.148365 28.4858C0.148365 28.4858 7.79778 28.4856 18.899 24.6002C18.899 24.6002 28.8901 27.3755 39.7723 28.9114C39.7723 28.9114 40.2591 23.9934 39.7723 22.3213C32.0252 22.7404 8.44773 22.6487 0.148365 23.7729C-0.00778821 25.34 -0.00778821 26.9187 0.148365 28.4858Z" fill="#43437D"/>
<path d="M0.0839844 24.5765C0.0839844 19.2832 2.18671 14.2068 5.9296 10.4639C9.67249 6.72102 14.7489 4.61829 20.0422 4.61829C25.3354 4.61829 30.4119 6.72102 34.1548 10.4639C37.8977 14.2068 40.0004 19.2832 40.0004 24.5765" fill="#43437D"/>
<path d="M8.53347 28.9339C8.05647 30.7141 11.1986 33.1028 13.5674 33.7375C15.9363 34.3723 18.2433 33.4437 18.7203 31.6635C19.1973 29.8833 17.6637 27.9256 15.2948 27.2908C12.926 26.6561 9.01048 27.1537 8.53347 28.9339Z" fill="#212121"/>
<path d="M31.497 28.9336C31.02 27.1534 27.1045 26.6558 24.7356 27.2905C22.3668 27.9252 20.8331 29.8829 21.3101 31.6631C21.7871 33.4433 24.0941 34.3719 26.463 33.7371C28.8319 33.1024 31.974 30.7138 31.497 28.9336Z" fill="#212121"/>
<line x1="17.7891" y1="31.0943" x2="22.2296" y2="31.0943" stroke="#212121" stroke-width="0.333336"/>
</svg>
