<svg width="64" height="64" viewBox="0 0 64 64" fill="none" xmlns="http://www.w3.org/2000/svg">
<path d="M54.6672 0H9.33276C6.93984 0 5 1.79479 5 4.00879V39.9912C5 42.2052 6.93984 44 9.33276 44H54.6672C57.0602 44 59 42.2052 59 39.9912V4.00879C59 1.79479 57.0602 0 54.6672 0Z" fill="#B4C5DD"/>
<path d="M31.898 30.9406C36.8791 30.9406 40.9171 26.9027 40.9171 21.9215C40.9171 16.9404 36.8791 12.9025 31.898 12.9025C26.9169 12.9025 22.8789 16.9404 22.8789 21.9215C22.8789 26.9027 26.9169 30.9406 31.898 30.9406Z" fill="#A4B7CE"/>
<path d="M42.3867 13.6426L52.9977 4.62354" stroke="#A4B7CE" stroke-width="0.506975" stroke-miterlimit="10"/>
<path d="M20.521 14.4386L11.502 3.82764" stroke="#A4B7CE" stroke-width="0.506975" stroke-miterlimit="10"/>
<path d="M22.1129 29.7543L11.502 38.7734" stroke="#A4B7CE" stroke-width="0.506975" stroke-miterlimit="10"/>
<path d="M43.9785 28.9584L52.9976 39.5694" stroke="#A4B7CE" stroke-width="0.506975" stroke-miterlimit="10"/>
<path d="M28.1355 23.1992C28.1355 21.2252 26.5364 19.625 24.5638 19.625C22.5913 19.625 20.9922 21.2252 20.9922 23.1992V43.0016C20.9922 44.9756 22.5913 46.5758 24.5638 46.5758C26.5364 46.5758 28.1355 44.9756 28.1355 43.0016V23.1992Z" fill="#FBEBD1"/>
<path d="M35.279 18.8696C35.279 16.8956 33.6799 15.2954 31.7074 15.2954C29.7348 15.2954 28.1357 16.8956 28.1357 18.8696V43.0016C28.1357 44.9755 29.7348 46.5758 31.7074 46.5758C33.6799 46.5758 35.279 44.9755 35.279 43.0016V18.8696Z" fill="#FBEBD1"/>
<path d="M39.0208 18.2106H38.6811C36.8023 18.2106 35.2793 19.7336 35.2793 21.6124V43.1791C35.2793 45.0578 36.8023 46.5809 38.6811 46.5809H39.0208C40.8995 46.5809 42.4226 45.0578 42.4226 43.1791V21.6124C42.4226 19.7336 40.8995 18.2106 39.0208 18.2106Z" fill="#FBEBD1"/>
<path d="M45.3276 26.1295H45.3226C43.7238 26.1295 42.4277 27.4256 42.4277 29.0243V43.681C42.4277 45.2798 43.7238 46.5758 45.3226 46.5758H45.3276C46.9264 46.5758 48.2225 45.2798 48.2225 43.681V29.0243C48.2225 27.4256 46.9264 26.1295 45.3276 26.1295Z" fill="#FBEBD1"/>
<path d="M18.5155 36.4031C17.6947 34.5527 15.5292 33.7179 13.6787 34.5387C11.8282 35.3595 10.9935 37.525 11.8143 39.3755L17.1321 51.3645C17.9529 53.215 20.1184 54.0497 21.9689 53.2289C23.8194 52.4081 24.6541 50.2426 23.8333 48.3921L18.5155 36.4031Z" fill="#FBEBD1"/>
<path d="M16.7646 43.8838H48.2174V48.3807C48.2174 56.913 41.2921 63.8383 32.7597 63.8383H32.2223C23.6899 63.8383 16.7646 56.913 16.7646 48.3807V43.8838Z" fill="#FBEBD1"/>
<path d="M28.1357 22.2054V36.7506" stroke="#C3B7A2" stroke-width="0.506975" stroke-miterlimit="10" stroke-linecap="round"/>
<path d="M35.2793 21.0446V36.7506" stroke="#C3B7A2" stroke-width="0.506975" stroke-miterlimit="10" stroke-linecap="round"/>
<path d="M42.4277 28.7505V36.7506" stroke="#C3B7A2" stroke-width="0.506975" stroke-miterlimit="10" stroke-linecap="round"/>
</svg>
